<svg width="53" height="53" viewBox="0 0 53 53" fill="none" xmlns="http://www.w3.org/2000/svg">
<path d="M26.5001 0.470459C25.068 0.472709 23.6647 0.86665 22.4468 1.60832C21.229 2.34999 20.2444 3.41022 19.6029 4.6707C18.9615 5.93117 18.6885 7.34231 18.8143 8.74666C18.9401 10.151 19.4599 11.4933 20.3156 12.6238C21.1712 13.7542 22.3291 14.6284 23.6601 15.1488C24.9911 15.6691 26.4427 15.8151 27.8531 15.5706C29.2635 15.326 30.5771 14.7004 31.6473 13.7637C32.7175 12.827 33.5023 11.6159 33.9141 10.2656C36.7555 11.4355 39.2723 13.2561 41.2553 15.5762C43.2382 17.8962 44.6301 20.6487 45.3151 23.6047L43.4311 22.6774C43.0632 22.4976 42.638 22.4684 42.2483 22.5962C41.8586 22.724 41.5361 22.9984 41.3512 23.3594C41.1663 23.7205 41.134 24.1389 41.2614 24.5233C41.3888 24.9078 41.6655 25.2269 42.0311 25.4112L46.6681 27.6931C47.006 27.8591 47.394 27.8976 47.7587 27.8013C48.1235 27.705 48.4399 27.4806 48.6481 27.1704L51.7391 22.6055C51.8566 22.4402 51.9394 22.2534 51.9827 22.0562C52.026 21.8589 52.0289 21.6551 51.9912 21.4568C51.9534 21.2584 51.8759 21.0695 51.7631 20.901C51.6503 20.7325 51.5044 20.5878 51.3341 20.4755C51.1638 20.3632 50.9725 20.2855 50.7713 20.2469C50.57 20.2083 50.363 20.2096 50.1623 20.2507C49.9617 20.2918 49.7713 20.372 49.6025 20.4864C49.4336 20.6009 49.2897 20.7473 49.1791 20.9172L48.1891 22.3673C47.278 18.9014 45.5247 15.7054 43.0803 13.0547C40.6359 10.4039 37.5736 8.3778 34.1571 7.15085C33.9256 5.31061 33.0201 3.61672 31.6104 2.38684C30.2007 1.15696 28.3837 0.475572 26.5001 0.470459ZM26.5001 3.51336C27.4172 3.51336 28.3137 3.78108 29.0763 4.28267C29.8388 4.78426 30.4332 5.49719 30.7841 6.33131C31.1351 7.16542 31.2269 8.08326 31.048 8.96875C30.8691 9.85424 30.4274 10.6676 29.7789 11.306C29.1304 11.9444 28.3042 12.3792 27.4047 12.5553C26.5052 12.7315 25.5729 12.6411 24.7256 12.2956C23.8783 11.9501 23.1541 11.365 22.6446 10.6143C22.135 9.8636 21.8631 8.98104 21.8631 8.0782C21.8599 7.47786 21.9777 6.88285 22.2096 6.32761C22.4415 5.77236 22.7829 5.26789 23.2141 4.84338C23.6454 4.41887 24.1578 4.08275 24.7218 3.85445C25.2858 3.62616 25.8903 3.51022 26.5001 3.51336ZM9.35609 9.59915C9.15313 9.60853 8.95403 9.65716 8.77017 9.74228C8.5863 9.8274 8.42127 9.94733 8.28449 10.0952C8.14771 10.2431 8.04186 10.4161 7.97299 10.6043C7.90412 10.7925 7.87357 10.9922 7.88309 11.192C7.89261 11.3918 7.94201 11.5878 8.02848 11.7688C8.11494 11.9498 8.23678 12.1122 8.38702 12.2469C8.53727 12.3815 8.71298 12.4857 8.90413 12.5535C9.09528 12.6214 9.29813 12.6514 9.50109 12.642H10.3011C7.90736 15.1138 6.1275 18.0977 5.10095 21.3598C4.0744 24.6219 3.82904 28.0737 4.38409 31.4448C2.84874 32.4668 1.73694 33.9973 1.25087 35.758C0.764802 37.5187 0.936739 39.3926 1.73542 41.0391C2.5341 42.6855 3.90649 43.9952 5.60301 44.7298C7.29954 45.4644 9.20755 45.5753 10.9801 45.0422C12.7526 44.5091 14.2719 43.3675 15.2618 41.825C16.2517 40.2824 16.6463 38.4414 16.374 36.6366C16.1017 34.8319 15.1805 33.1833 13.7779 31.9906C12.3753 30.7979 10.5845 30.1403 8.73109 30.1375C8.26898 30.1439 7.80842 30.1917 7.35509 30.2802C7.24493 29.4765 7.18848 28.6665 7.18609 27.8556C7.18292 25.2389 7.73061 22.65 8.79461 20.2522C9.85862 17.8543 11.4159 15.6995 13.3681 13.9238V16.4439C13.3628 16.647 13.3989 16.849 13.4742 17.0381C13.5496 17.2273 13.6626 17.3996 13.8066 17.5451C13.9506 17.6905 14.1228 17.8061 14.3129 17.885C14.503 17.9639 14.7073 18.0046 14.9136 18.0046C15.1199 18.0046 15.3242 17.9639 15.5143 17.885C15.7044 17.8061 15.8766 17.6905 16.0206 17.5451C16.1646 17.3996 16.2776 17.2273 16.3529 17.0381C16.4282 16.849 16.4643 16.647 16.4591 16.4439V11.1181C16.4591 10.7147 16.2963 10.3277 16.0066 10.0423C15.7169 9.75692 15.3239 9.59646 14.9141 9.5962H9.50009C9.45209 9.5962 9.40409 9.59718 9.35609 9.59915ZM44.2761 30.1394C42.7894 30.1364 41.3335 30.5563 40.0835 31.3485C38.8335 32.1407 37.8425 33.2715 37.2298 34.605C36.6171 35.9384 36.4088 37.4177 36.6299 38.865C36.851 40.3122 37.4921 41.6658 38.4761 42.7629C36.028 44.6758 33.1441 45.974 30.073 46.5456C27.0019 47.1172 23.8356 46.9451 20.8471 46.044L22.5621 45.1885C22.7457 45.0988 22.9095 44.9742 23.0441 44.8219C23.1786 44.6696 23.2812 44.4926 23.346 44.3012C23.4108 44.1097 23.4365 43.9075 23.4216 43.7062C23.4067 43.5049 23.3515 43.3085 23.2592 43.1283C23.1669 42.9481 23.0393 42.7876 22.8838 42.6561C22.7283 42.5246 22.5479 42.4247 22.353 42.3621C22.1581 42.2995 21.9525 42.2754 21.7481 42.2914C21.5437 42.3073 21.3446 42.3628 21.1621 42.4548L16.5251 44.7367C16.1603 44.9199 15.8843 45.2381 15.7575 45.6214C15.6308 46.0047 15.6637 46.4219 15.8491 46.7814L18.1701 51.3462C18.2487 51.5429 18.3681 51.7214 18.5206 51.8701C18.6731 52.0189 18.8554 52.1348 19.056 52.2104C19.2565 52.286 19.4708 52.3196 19.6853 52.3092C19.8997 52.2987 20.1096 52.2444 20.3016 52.1497C20.4935 52.0549 20.6633 51.9219 20.8002 51.759C20.937 51.5961 21.0379 51.4069 21.0964 51.2035C21.1548 51.0001 21.1696 50.787 21.1398 50.5776C21.11 50.3683 21.0362 50.1674 20.9231 49.9877L20.4881 49.1076C24.0196 50.0767 27.739 50.1759 31.3186 49.3966C34.8982 48.6172 38.2281 46.9831 41.0151 44.6382C42.0348 45.1104 43.1482 45.3539 44.2751 45.351C46.3247 45.351 48.2903 44.5495 49.7396 43.1227C51.1889 41.696 52.0031 39.7609 52.0031 37.7432C52.0031 35.7255 51.1889 33.7905 49.7396 32.3638C48.2903 30.937 46.3247 30.1355 44.2751 30.1355L44.2761 30.1394ZM8.72809 33.1833C9.6452 33.1833 10.5417 33.4511 11.3043 33.9526C12.0668 34.4542 12.6612 35.1672 13.0121 36.0013C13.3631 36.8354 13.4549 37.7532 13.276 38.6387C13.0971 39.5242 12.6554 40.3376 12.0069 40.976C11.3584 41.6144 10.5322 42.0492 9.63272 42.2253C8.73323 42.4014 7.80089 42.311 6.95359 41.9655C6.10629 41.62 5.38208 41.0349 4.87256 40.2843C4.36304 39.5336 4.09109 38.651 4.09109 37.7482C4.08791 37.1478 4.20568 36.5528 4.43758 35.9976C4.66949 35.4423 5.01092 34.9379 5.44214 34.5134C5.87336 34.0888 6.38581 33.7527 6.94983 33.5244C7.51385 33.2961 8.11826 33.1802 8.72809 33.1833ZM44.2761 33.1833C45.1932 33.1833 46.0897 33.4511 46.8523 33.9526C47.6148 34.4542 48.2091 35.1672 48.5601 36.0013C48.9111 36.8354 49.0029 37.7532 48.824 38.6387C48.6451 39.5242 48.2034 40.3376 47.5549 40.976C46.9064 41.6144 46.0802 42.0492 45.1807 42.2253C44.2812 42.4014 43.3489 42.311 42.5016 41.9655C41.6543 41.62 40.9301 41.0349 40.4206 40.2843C39.911 39.5336 39.6391 38.651 39.6391 37.7482C39.6359 37.1478 39.7537 36.5528 39.9856 35.9976C40.2175 35.4423 40.5589 34.9379 40.9901 34.5134C41.4214 34.0888 41.9338 33.7527 42.4978 33.5244C43.0618 33.2961 43.6663 33.1802 44.2761 33.1833Z" fill="#616161"/>
</svg>
