<svg width="24" height="27" viewBox="0 0 24 27" fill="none" xmlns="http://www.w3.org/2000/svg">
<path opacity="0.75" d="M1.59804 20.647C1.59934 21.6179 1.95849 22.5549 2.60777 23.2811C3.25705 24.0074 4.15158 24.4728 5.12272 24.5895C5.39783 25.2312 5.83871 25.7894 6.40078 26.2078C6.96286 26.6261 7.62623 26.8898 8.32387 26.9722C9.02151 27.0546 9.72871 26.9528 10.374 26.6771C11.0193 26.4013 11.5798 25.9614 11.999 25.4017C12.4181 25.9614 12.9786 26.4013 13.6239 26.6771C14.2692 26.9528 14.9764 27.0546 15.6741 26.9722C16.3717 26.8898 17.0351 26.6261 17.5972 26.2078C18.1592 25.7894 18.6001 25.2312 18.8752 24.5895C19.8458 24.4728 20.7399 24.0079 21.3892 23.2823C22.0384 22.5567 22.3979 21.6205 22.3999 20.65V20.65C23.1828 20.0683 23.7233 19.2217 23.9191 18.2707C24.1149 17.3197 23.9523 16.3304 23.4621 15.4905C23.8136 14.887 23.9991 14.2023 23.9999 13.5052C24.0025 12.8735 23.8519 12.2505 23.5608 11.6888C23.2697 11.1271 22.8467 10.6432 22.3275 10.278C22.3755 10.0329 22.3998 9.78378 22.3999 9.5341C22.3997 8.91773 22.2551 8.30984 21.9776 7.75843C21.7001 7.20702 21.2973 6.72719 20.8009 6.35681V6.35681C20.8 5.72099 20.6457 5.09464 20.3508 4.53021C20.0558 3.96578 19.629 3.47972 19.1059 3.11273C18.9409 2.37068 18.5644 1.69135 18.0214 1.15567C17.4784 0.619993 16.7917 0.25055 16.0431 0.0913573C15.2945 -0.0678355 14.5155 -0.0100675 13.7991 0.257779C13.0826 0.525626 12.4588 0.992259 12.0021 1.60209C11.5456 0.991316 10.9217 0.523786 10.2049 0.255277C9.48808 -0.0132323 8.70857 -0.0713842 7.95936 0.0877591C7.21016 0.246902 6.5229 0.616622 5.97958 1.15281C5.43626 1.68899 5.05982 2.369 4.89517 3.11171C4.37191 3.47855 3.94491 3.96458 3.64998 4.52904C3.35504 5.0935 3.20078 5.71993 3.20012 6.35579V6.35579C2.70397 6.72575 2.30119 7.20505 2.02352 7.7559C1.74586 8.30674 1.60091 8.91408 1.60009 9.53002C1.60003 9.77971 1.62429 10.0288 1.67252 10.2739C1.1533 10.6391 0.730274 11.123 0.43918 11.6848C0.148086 12.2465 -0.00252664 12.8695 6.62965e-05 13.5011C0.000918893 14.1982 0.186381 14.8829 0.53786 15.4864C0.0476796 16.3263 -0.114933 17.3156 0.0808583 18.2666C0.276649 19.2176 0.817231 20.0643 1.60009 20.646L1.59804 20.647ZM12.7992 21.9343L13.45 21.6111C13.6725 21.5011 13.9176 21.4437 14.1661 21.4433H15.1995C15.4082 21.4381 15.6065 21.3521 15.7523 21.2038C15.898 21.0554 15.9795 20.8565 15.9795 20.6493C15.9795 20.4421 15.898 20.2431 15.7523 20.0948C15.6065 19.9464 15.4082 19.8605 15.1995 19.8552H14.1661C13.6934 19.8563 13.2267 19.9608 12.7992 20.1611V14.7966C13.5562 14.4677 14.3733 14.2973 15.1995 14.296C15.4082 14.2907 15.6065 14.2048 15.7523 14.0564C15.898 13.9081 15.9795 13.7091 15.9795 13.5019C15.9795 13.2947 15.898 13.0957 15.7523 12.9474C15.6065 12.799 15.4082 12.7131 15.1995 12.7078C14.3835 12.7097 13.573 12.8419 12.7992 13.0994V7.39432C13.3282 7.75175 13.9536 7.94225 14.5934 7.94087H15.9998C16.1066 7.94355 16.2128 7.925 16.3122 7.8863C16.4117 7.8476 16.5023 7.78954 16.5787 7.71554C16.6552 7.64154 16.716 7.55309 16.7575 7.45541C16.799 7.35774 16.8203 7.2528 16.8203 7.1468C16.8203 7.04079 16.799 6.93586 16.7575 6.83818C16.716 6.7405 16.6552 6.65206 16.5787 6.57806C16.5023 6.50406 16.4117 6.446 16.3122 6.4073C16.2128 6.3686 16.1066 6.35005 15.9998 6.35273H14.5934C14.3835 6.353 14.1756 6.31205 13.9816 6.23225C13.7877 6.15245 13.6116 6.03538 13.4634 5.88776L12.8008 5.23007V3.97078C12.7998 3.40927 12.9988 2.8655 13.3627 2.43559C13.7267 2.00569 14.232 1.71734 14.7894 1.62154C15.3468 1.52574 15.9204 1.62865 16.4088 1.91207C16.8971 2.1955 17.2688 2.64119 17.4581 3.17034L16.0049 3.16269H15.9993C15.7906 3.16716 15.5919 3.2524 15.4456 3.40024C15.2993 3.54808 15.217 3.74681 15.2163 3.95402C15.2155 4.16124 15.2964 4.36054 15.4416 4.5094C15.5869 4.65826 15.785 4.7449 15.9936 4.75083L18.3688 4.76714H18.3744C18.4364 4.76667 18.4981 4.75897 18.5583 4.7442C18.9687 5.18223 19.1977 5.75764 19.1999 6.35579C19.1999 6.38791 19.1999 6.42309 19.1957 6.45776L18.2892 7.5952C17.8506 8.14792 17.6086 8.82909 17.6009 9.53257H15.1995C15.0928 9.52989 14.9865 9.54844 14.8871 9.58714C14.7877 9.62584 14.6971 9.6839 14.6206 9.7579C14.5441 9.8319 14.4834 9.92035 14.4419 10.018C14.4004 10.1157 14.379 10.2206 14.379 10.3266C14.379 10.4326 14.4004 10.5376 14.4419 10.6353C14.4834 10.7329 14.5441 10.8214 14.6206 10.8954C14.6971 10.9694 14.7877 11.0274 14.8871 11.0661C14.9865 11.1048 15.0928 11.1234 15.1995 11.1207H17.5998V11.915C17.5971 12.021 17.6158 12.1264 17.6548 12.2251C17.6938 12.3238 17.7523 12.4138 17.8268 12.4897C17.9014 12.5656 17.9905 12.6259 18.0889 12.6671C18.1873 12.7083 18.293 12.7295 18.3998 12.7295C18.5066 12.7295 18.6124 12.7083 18.7108 12.6671C18.8092 12.6259 18.8983 12.5656 18.9728 12.4897C19.0474 12.4138 19.1059 12.3238 19.1449 12.2251C19.1839 12.1264 19.2026 12.021 19.1999 11.915V9.56469C19.2004 9.20732 19.3218 8.86047 19.5445 8.57969L20.1095 7.86592C20.4306 8.18764 20.6515 8.59428 20.7459 9.03728C20.8404 9.48027 20.8044 9.94089 20.6422 10.3641C20.5723 10.5493 20.5745 10.7538 20.6484 10.9374C20.7223 11.1211 20.8626 11.2708 21.0418 11.3573C21.5735 11.6119 21.9919 12.0523 22.2168 12.594C22.4417 13.1358 22.4573 13.7409 22.2607 14.2934H19.1999C19.0931 14.2907 18.9869 14.3093 18.8874 14.348C18.788 14.3867 18.6974 14.4447 18.6209 14.5187C18.5445 14.5927 18.4837 14.6812 18.4422 14.7789C18.4007 14.8765 18.3793 14.9815 18.3793 15.0875C18.3793 15.1935 18.4007 15.2984 18.4422 15.3961C18.4837 15.4938 18.5445 15.5822 18.6209 15.6562C18.6974 15.7302 18.788 15.7883 18.8874 15.827C18.9869 15.8657 19.0931 15.8842 19.1999 15.8816H21.8046C21.8243 15.9172 21.8468 15.9513 21.8719 15.9835C22.2152 16.4047 22.4017 16.9305 22.3999 17.4722C22.3991 18.0027 22.2198 18.5177 21.8904 18.9355C21.6013 18.4872 21.2034 18.1183 20.7332 17.8627C20.2629 17.607 19.7355 17.4727 19.1993 17.4722H17.5998C17.3877 17.4721 17.1843 17.3884 17.0343 17.2396C16.8843 17.0908 16.7998 16.889 16.7996 16.6784C16.8023 16.5725 16.7836 16.467 16.7446 16.3683C16.7056 16.2696 16.6471 16.1797 16.5725 16.1038C16.498 16.0279 16.4089 15.9676 16.3105 15.9264C16.2121 15.8852 16.1063 15.864 15.9995 15.864C15.8928 15.864 15.787 15.8852 15.6886 15.9264C15.5902 15.9676 15.5011 16.0279 15.4266 16.1038C15.352 16.1797 15.2935 16.2696 15.2545 16.3683C15.2155 16.467 15.1968 16.5725 15.1995 16.6784C15.2002 17.3101 15.4533 17.9157 15.9033 18.3623C16.3533 18.809 16.9634 19.0602 17.5998 19.0609H19.1999C19.6244 19.0612 20.0315 19.2287 20.3317 19.5266C20.6319 19.8246 20.8006 20.2287 20.8009 20.65C20.8003 21.1711 20.6276 21.6776 20.3093 22.092C19.991 22.5063 19.5446 22.8057 19.0386 22.9443L18.7853 21.6865C18.7437 21.4801 18.6212 21.2985 18.4446 21.1817C18.2681 21.0649 18.0521 21.0225 17.8441 21.0638C17.6361 21.1051 17.4531 21.2267 17.3354 21.4019C17.2178 21.5771 17.175 21.7916 17.2166 21.998L17.5367 23.5862C17.5325 23.5994 17.5259 23.6117 17.5228 23.6254C17.391 24.1374 17.0913 24.5912 16.6709 24.9153C16.2505 25.2394 15.7334 25.4154 15.2011 25.4155C15.0574 25.4147 14.914 25.4012 14.7727 25.3752L15.7671 24.3871C15.8465 24.3147 15.9103 24.227 15.9547 24.1295C15.9991 24.0319 16.0231 23.9265 16.0254 23.8194C16.0276 23.7124 16.008 23.606 15.9678 23.5067C15.9276 23.4074 15.8676 23.3172 15.7913 23.2415C15.715 23.1658 15.6241 23.1062 15.5241 23.0663C15.424 23.0264 15.3169 23.0069 15.209 23.0092C15.1012 23.0114 14.995 23.0353 14.8967 23.0793C14.7984 23.1234 14.7101 23.1867 14.6371 23.2655L13.3488 24.5442C12.9951 24.1189 12.8018 23.5845 12.8023 23.033L12.7992 21.9343ZM3.99833 14.296H1.73518C1.53844 13.7435 1.55402 13.1383 1.77894 12.5965C2.00386 12.0547 2.4223 11.6144 2.95408 11.3598C3.13331 11.2734 3.27359 11.1237 3.3475 10.94C3.42141 10.7563 3.42362 10.5519 3.3537 10.3667C3.19964 9.96529 3.15941 9.52968 3.23738 9.10719C3.31536 8.68471 3.50855 8.29154 3.79595 7.97044L5.39136 10.6308C5.41049 10.6623 5.43159 10.6926 5.45453 10.7215C5.60454 10.9076 5.77492 11.0765 5.96254 11.2252L5.0318 12.1465C4.8953 12.2978 4.82238 12.4952 4.82802 12.6983C4.83366 12.9013 4.91742 13.0944 5.06211 13.2381C5.20679 13.3817 5.4014 13.4648 5.60594 13.4704C5.81047 13.476 6.0094 13.4036 6.16183 13.2681L7.55383 11.8865C7.68519 11.903 7.81745 11.9115 7.94986 11.912H8.79635C9.00502 11.9067 9.20336 11.8208 9.34908 11.6724C9.49479 11.5241 9.57635 11.3251 9.57635 11.1179C9.57635 10.9107 9.49479 10.7117 9.34908 10.5634C9.20336 10.415 9.00502 10.3291 8.79635 10.3238H7.95191C7.72026 10.3244 7.49127 10.2748 7.28092 10.1784C7.07058 10.0821 6.88394 9.94138 6.73404 9.76608L4.80939 6.55106C4.80322 6.47917 4.79809 6.41238 4.79809 6.35324C4.8 5.96561 4.89713 5.58429 5.08107 5.24234C5.26501 4.90038 5.53019 4.60812 5.85364 4.39088L7.2405 5.07967C7.33447 5.1263 7.43676 5.15411 7.54155 5.1615C7.64634 5.16889 7.75157 5.15573 7.85123 5.12275C7.9509 5.08978 8.04304 5.03764 8.1224 4.96932C8.20177 4.901 8.2668 4.81784 8.31378 4.72457C8.36076 4.63131 8.38877 4.52977 8.39622 4.42576C8.40367 4.32175 8.3904 4.2173 8.35718 4.11838C8.32396 4.01945 8.27143 3.928 8.2026 3.84922C8.13377 3.77045 8.04998 3.7059 7.95602 3.65927L6.61385 2.99292C6.83921 2.49635 7.22932 2.0915 7.71908 1.84592C8.20883 1.60035 8.76862 1.52889 9.30504 1.64348C9.84147 1.75807 10.3221 2.05177 10.6667 2.47558C11.0113 2.89939 11.1991 3.42768 11.1987 3.97231V6.9008C10.6698 6.54338 10.0444 6.35288 9.40452 6.35426H8.79841C8.58974 6.35951 8.3914 6.44547 8.24568 6.59382C8.09997 6.74216 8.01841 6.94114 8.01841 7.14833C8.01841 7.35551 8.09997 7.5545 8.24568 7.70284C8.3914 7.85118 8.58974 7.93715 8.79841 7.9424H9.40452C9.61446 7.94213 9.82238 7.98308 10.0163 8.06287C10.2103 8.14267 10.3864 8.25975 10.5346 8.40737L11.1972 9.06505V13.7759C10.5195 13.9787 9.78946 13.9184 9.15488 13.6072C8.96595 13.5197 8.75009 13.5089 8.55324 13.577C8.35639 13.6451 8.19408 13.7868 8.10085 13.9718C8.00762 14.1569 7.99083 14.3708 8.05405 14.568C8.11727 14.7651 8.25552 14.93 8.43937 15.0276C9.04733 15.3293 9.7177 15.4864 10.3974 15.4864C10.666 15.4841 10.9339 15.4575 11.1977 15.4069V18.2681H9.48208C9.18443 18.2687 8.89258 18.1864 8.63963 18.0307C8.38669 17.875 8.18278 17.652 8.05104 17.3871L7.51428 16.3215C7.41939 16.1332 7.25301 15.99 7.05173 15.9234C6.85046 15.8568 6.63077 15.8723 6.441 15.9664C6.25124 16.0606 6.10693 16.2258 6.03984 16.4255C5.97275 16.6253 5.98836 16.8434 6.08324 17.0317L6.6195 18.1009C6.88379 18.6297 7.29203 19.0746 7.79796 19.385C8.30389 19.6954 8.88729 19.859 9.48208 19.8572H11.1992V23.0335C11.1983 23.5256 11.0441 24.0054 10.7576 24.407C10.4711 24.8086 10.0665 25.1125 9.59919 25.2768V24.0185C9.60038 23.601 9.51809 23.1875 9.35709 22.8018C9.19609 22.4161 8.95958 22.066 8.66126 21.7717L7.76391 20.8815C7.69133 20.8011 7.60298 20.7361 7.50427 20.6907C7.40555 20.6453 7.29854 20.6203 7.18978 20.6174C7.08101 20.6144 6.97278 20.6335 6.87169 20.6734C6.77061 20.7134 6.67879 20.7734 6.60185 20.8497C6.52491 20.9261 6.46448 21.0172 6.42423 21.1176C6.38398 21.2179 6.36476 21.3253 6.36776 21.4333C6.37076 21.5412 6.3959 21.6474 6.44166 21.7454C6.48742 21.8434 6.55282 21.9311 6.63388 22.0031L7.52969 22.8933C7.6785 23.0404 7.79655 23.2151 7.87704 23.4076C7.95752 23.6001 7.99885 23.8065 7.99865 24.015V25.2732C7.62782 25.1428 7.29501 24.9238 7.02959 24.6355C6.76417 24.3473 6.5743 23.9986 6.4767 23.6203C6.43268 23.4496 6.33267 23.2983 6.19242 23.1902C6.05218 23.0821 5.87968 23.0234 5.70211 23.0233H5.67284L5.59836 23.0274C4.96286 23.0267 4.3535 22.7762 3.90365 22.3307C3.45381 21.8851 3.2001 21.2808 3.19806 20.65C3.19806 20.6276 3.19806 20.6026 3.20114 20.5787L4.56438 19.2225C4.64376 19.15 4.70756 19.0624 4.75194 18.9648C4.79632 18.8673 4.82036 18.7618 4.82262 18.6548C4.82487 18.5478 4.8053 18.4414 4.76508 18.3421C4.72485 18.2428 4.6648 18.1526 4.58855 18.0769C4.51229 18.0012 4.4214 17.9416 4.32134 17.9017C4.22127 17.8617 4.11411 17.8423 4.00629 17.8445C3.89847 17.8468 3.79222 17.8706 3.69393 17.9147C3.59564 17.9587 3.50734 18.0221 3.43434 18.1009L2.34026 19.1868C2.10686 18.9651 1.92095 18.699 1.79367 18.4043C1.6664 18.1096 1.60038 17.7924 1.59958 17.4717C1.59778 16.93 1.78428 16.4042 2.12761 15.983C2.15257 15.9507 2.17506 15.9166 2.1949 15.881H3.99936C4.10612 15.8837 4.21235 15.8652 4.31178 15.8265C4.41121 15.7878 4.50183 15.7297 4.57829 15.6557C4.65476 15.5817 4.71554 15.4933 4.75703 15.3956C4.79852 15.2979 4.8199 15.193 4.8199 15.087C4.8199 14.981 4.79852 14.876 4.75703 14.7784C4.71554 14.6807 4.65476 14.5922 4.57829 14.5182C4.50183 14.4442 4.41121 14.3862 4.31178 14.3475C4.21235 14.3088 4.10612 14.2902 3.99936 14.2929L3.99833 14.296Z" fill="white"/>
</svg>
