<svg width="30" height="27" viewBox="0 0 30 27" fill="none" xmlns="http://www.w3.org/2000/svg">
<path d="M26.3157 0H2.82299C2.07542 0.0036343 1.35953 0.297594 0.830914 0.817983C0.302298 1.33837 0.00369175 2.04313 0 2.77906V19.6311C0.00369175 20.367 0.302298 21.0718 0.830914 21.5922C1.35953 22.1126 2.07542 22.4065 2.82299 22.4102H10.0165V25.0996H7.28245C7.16032 25.0956 7.03861 25.1157 6.92456 25.1589C6.81051 25.2021 6.70646 25.2675 6.6186 25.3511C6.53074 25.4347 6.46087 25.5349 6.41315 25.6456C6.36544 25.7564 6.34085 25.8755 6.34085 25.9958C6.34085 26.1161 6.36544 26.2351 6.41315 26.3459C6.46087 26.4566 6.53074 26.5568 6.6186 26.6404C6.70646 26.724 6.81051 26.7894 6.92456 26.8326C7.03861 26.8758 7.16032 26.896 7.28245 26.8919H21.8536C21.9757 26.896 22.0974 26.8758 22.2115 26.8326C22.3255 26.7894 22.4296 26.724 22.5175 26.6404C22.6053 26.5568 22.6752 26.4566 22.7229 26.3459C22.7706 26.2351 22.7952 26.1161 22.7952 25.9958C22.7952 25.8755 22.7706 25.7564 22.7229 25.6456C22.6752 25.5349 22.6053 25.4347 22.5175 25.3511C22.4296 25.2675 22.3255 25.2021 22.2115 25.1589C22.0974 25.1157 21.9757 25.0956 21.8536 25.0996H19.1222V22.4102H26.3157C27.0632 22.4065 27.7791 22.1126 28.3077 21.5922C28.8364 21.0718 29.135 20.367 29.1387 19.6311V2.77906C29.135 2.04313 28.8364 1.33837 28.3077 0.817983C27.7791 0.297594 27.0632 0.0036343 26.3157 0V0ZM1.82061 2.77906C1.82279 2.51801 1.92909 2.26826 2.11661 2.08367C2.30412 1.89907 2.55782 1.79442 2.82299 1.79228H26.3157C26.5807 1.79455 26.8341 1.89919 27.0215 2.08366C27.2089 2.26813 27.3152 2.51768 27.3175 2.77855V16.1351H1.82061V2.77906ZM17.301 25.0991H11.8392V22.4102H17.301V25.0991ZM27.317 19.6311C27.3147 19.892 27.2084 20.1415 27.021 20.326C26.8336 20.5105 26.5801 20.6151 26.3151 20.6174H2.82299C2.55791 20.6152 2.30429 20.5107 2.11679 20.3262C1.92929 20.1417 1.82292 19.8921 1.82061 19.6311V17.9279H27.317V19.6311Z" fill="#616161"/>
<path d="M19.5776 5.64727C19.4085 5.48083 19.1792 5.38733 18.9401 5.38733C18.701 5.38733 18.4717 5.48083 18.3026 5.64727C18.1336 5.8137 18.0386 6.03944 18.0386 6.27482C18.0386 6.51019 18.1336 6.73593 18.3026 6.90237L20.3968 8.96296L18.3026 11.0246C18.1336 11.191 18.0386 11.4167 18.0386 11.6521C18.0386 11.8875 18.1336 12.1132 18.3026 12.2797C18.4717 12.4461 18.701 12.5396 18.9401 12.5396C19.1792 12.5396 19.4085 12.4461 19.5776 12.2797L22.3095 9.59025C22.3959 9.50933 22.4646 9.41197 22.5116 9.3041C22.5586 9.19622 22.5828 9.08007 22.5828 8.9627C22.5828 8.84533 22.5586 8.72919 22.5116 8.62131C22.4646 8.51344 22.3959 8.41608 22.3095 8.33515L19.5776 5.64727Z" fill="#616161"/>
<path d="M10.8358 5.64733C10.7536 5.56232 10.6547 5.49464 10.5452 5.44839C10.4356 5.40214 10.3176 5.3783 10.1984 5.3783C10.0791 5.3783 9.96115 5.40214 9.85157 5.44839C9.74199 5.49464 9.64309 5.56232 9.56089 5.64733L6.82944 8.33677C6.74309 8.41769 6.67433 8.51505 6.62735 8.62292C6.58038 8.7308 6.55615 8.84695 6.55615 8.96432C6.55615 9.08169 6.58038 9.19784 6.62735 9.30571C6.67433 9.41359 6.74309 9.51094 6.82944 9.59187L9.56141 12.2813C9.73048 12.4477 9.95978 12.5412 10.1989 12.5412C10.438 12.5412 10.6673 12.4477 10.8364 12.2813C11.0054 12.1149 11.1004 11.8891 11.1004 11.6538C11.1004 11.4184 11.0054 11.1926 10.8364 11.0262L8.74109 8.96304L10.8353 6.90141C10.9215 6.82053 10.9902 6.72327 11.0371 6.6155C11.0841 6.50774 11.1083 6.39173 11.1083 6.27448C11.1084 6.15723 11.0842 6.0412 11.0374 5.9334C10.9906 5.8256 10.922 5.72828 10.8358 5.64733V5.64733Z" fill="#616161"/>
<path d="M16.7551 3.58555C16.5251 3.50898 16.2741 3.52223 16.0538 3.62256C15.8335 3.7229 15.6607 3.90267 15.5711 4.12476L12.5661 12.2821C12.4816 12.508 12.4917 12.7576 12.5942 12.9761C12.6966 13.1947 12.8831 13.3642 13.1125 13.4474C13.342 13.5305 13.5956 13.5206 13.8175 13.4197C14.0395 13.3188 14.2117 13.1353 14.2962 12.9094L17.3012 4.75103C17.3791 4.52486 17.3659 4.2779 17.2643 4.06106C17.1626 3.84422 16.9804 3.67402 16.7551 3.58555V3.58555Z" fill="#616161"/>
</svg>
