<svg width="32" height="32" viewBox="0 0 32 32" fill="none" xmlns="http://www.w3.org/2000/svg">
<circle opacity="0.6" cx="12" cy="9" r="4.5" stroke="#5E0ED8"/>
<circle opacity="0.2" cx="12" cy="9" r="8.5" stroke="#5E0ED8"/>
<path d="M11.2998 20.4C10.9998 20 10.6998 19.3 10.0998 18.4C9.79977 17.9 8.89977 16.9 8.59977 16.5C8.39977 16.1 8.39977 15.9 8.49977 15.5C8.59977 14.9 9.19977 14.4 9.89977 14.4C10.3998 14.4 10.8998 14.8 11.2998 15.1C11.4998 15.3 11.7998 15.7 11.9998 15.9C12.1998 16.1 12.1998 16.2 12.3998 16.4C12.5998 16.7 12.6998 16.9 12.5998 16.5C12.4998 16 12.3998 15.2 12.1998 14.4C12.0998 13.8 11.9998 13.7 11.8998 13.3C11.7998 12.8 11.6998 12.5 11.5998 12C11.4998 11.7 11.3998 10.9 11.2998 10.5C11.1998 9.99999 11.1998 9.09999 11.5998 8.69999C11.8998 8.39999 12.4998 8.29999 12.8998 8.49999C13.3998 8.79999 13.6998 9.49999 13.7998 9.79999C13.9998 10.3 14.1998 11 14.2998 11.8C14.4998 12.8 14.7998 14.3 14.7998 14.6C14.7998 14.2 14.6998 13.5 14.7998 13.1C14.8998 12.8 15.0998 12.4 15.4998 12.3C15.7998 12.2 16.0998 12.2 16.3998 12.2C16.6998 12.3 16.9998 12.5 17.1998 12.7C17.5998 13.3 17.5998 14.6 17.5998 14.5C17.6998 14.1 17.6998 13.3 17.8998 12.9C17.9998 12.7 18.3998 12.5 18.5998 12.4C18.8998 12.3 19.2998 12.3 19.5998 12.4C19.7998 12.4 20.1998 12.7 20.2998 12.9C20.4998 13.2 20.5998 14.2 20.6998 14.6C20.6998 14.7 20.7998 14.2 20.9998 13.9C21.3998 13.3 22.7998 13.1 22.8998 14.5C22.8998 15.2 22.8998 15.1 22.8998 15.6C22.8998 16.1 22.8998 16.4 22.8998 16.8C22.8998 17.2 22.7998 18.1 22.6998 18.5C22.5998 18.8 22.2998 19.5 21.9998 19.9C21.9998 19.9 20.8998 21.1 20.7998 21.7C20.6998 22.3 20.6998 22.3 20.6998 22.7C20.6998 23.1 20.7998 23.6 20.7998 23.6C20.7998 23.6 19.9998 23.7 19.5998 23.6C19.1998 23.5 18.6998 22.8 18.5998 22.5C18.3998 22.2 18.0998 22.2 17.8998 22.5C17.6998 22.9 17.1998 23.6 16.7998 23.6C16.0998 23.7 14.6998 23.6 13.6998 23.6C13.6998 23.6 13.8998 22.6 13.4998 22.2C13.1998 21.9 12.6998 21.4 12.3998 21.1L11.2998 20.4Z" fill="white"/>
<path d="M11.2998 20.4C10.9998 20 10.6998 19.3 10.0998 18.4C9.79977 17.9 8.89977 16.9 8.59977 16.5C8.39977 16.1 8.39977 15.9 8.49977 15.5C8.59977 14.9 9.19977 14.4 9.89977 14.4C10.3998 14.4 10.8998 14.8 11.2998 15.1C11.4998 15.3 11.7998 15.7 11.9998 15.9C12.1998 16.1 12.1998 16.2 12.3998 16.4C12.5998 16.7 12.6998 16.9 12.5998 16.5C12.4998 16 12.3998 15.2 12.1998 14.4C12.0998 13.8 11.9998 13.7 11.8998 13.3C11.7998 12.8 11.6998 12.5 11.5998 12C11.4998 11.7 11.3998 10.9 11.2998 10.5C11.1998 9.99999 11.1998 9.09999 11.5998 8.69999C11.8998 8.39999 12.4998 8.29999 12.8998 8.49999C13.3998 8.79999 13.6998 9.49999 13.7998 9.79999C13.9998 10.3 14.1998 11 14.2998 11.8C14.4998 12.8 14.7998 14.3 14.7998 14.6C14.7998 14.2 14.6998 13.5 14.7998 13.1C14.8998 12.8 15.0998 12.4 15.4998 12.3C15.7998 12.2 16.0998 12.2 16.3998 12.2C16.6998 12.3 16.9998 12.5 17.1998 12.7C17.5998 13.3 17.5998 14.6 17.5998 14.5C17.6998 14.1 17.6998 13.3 17.8998 12.9C17.9998 12.7 18.3998 12.5 18.5998 12.4C18.8998 12.3 19.2998 12.3 19.5998 12.4C19.7998 12.4 20.1998 12.7 20.2998 12.9C20.4998 13.2 20.5998 14.2 20.6998 14.6C20.6998 14.7 20.7998 14.2 20.9998 13.9C21.3998 13.3 22.7998 13.1 22.8998 14.5C22.8998 15.2 22.8998 15.1 22.8998 15.6C22.8998 16.1 22.8998 16.4 22.8998 16.8C22.8998 17.2 22.7998 18.1 22.6998 18.5C22.5998 18.8 22.2998 19.5 21.9998 19.9C21.9998 19.9 20.8998 21.1 20.7998 21.7C20.6998 22.3 20.6998 22.3 20.6998 22.7C20.6998 23.1 20.7998 23.6 20.7998 23.6C20.7998 23.6 19.9998 23.7 19.5998 23.6C19.1998 23.5 18.6998 22.8 18.5998 22.5C18.3998 22.2 18.0998 22.2 17.8998 22.5C17.6998 22.9 17.1998 23.6 16.7998 23.6C16.0998 23.7 14.6998 23.6 13.6998 23.6C13.6998 23.6 13.8998 22.6 13.4998 22.2C13.1998 21.9 12.6998 21.4 12.3998 21.1L11.2998 20.4Z" stroke="black" stroke-width="0.75" stroke-linecap="round" stroke-linejoin="round"/>
<path d="M19.5996 20.7V17.3" stroke="black" stroke-width="0.75" stroke-linecap="round"/>
<path d="M17.6 20.7L17.5 17.3" stroke="black" stroke-width="0.75" stroke-linecap="round"/>
<path d="M15.5996 17.3V20.7" stroke="black" stroke-width="0.75" stroke-linecap="round"/>
</svg>
