<svg width="72" height="44" viewBox="0 0 72 44" fill="none" xmlns="http://www.w3.org/2000/svg">
<path d="M69.8639 4.30057L67.9399 2.40652C67.3128 1.77673 66.5644 1.27645 65.7385 0.934994C64.9125 0.593536 64.0257 0.417762 63.1299 0.417969C61.3305 0.421852 59.6041 1.11862 58.3199 2.35927L33.1128 27.1728L32.8718 27.4101L28.7838 39.4379C28.5693 39.921 28.5006 40.4547 28.5859 40.9753C28.6712 41.4958 28.9069 41.9812 29.2648 42.3734C29.5023 42.5942 29.7819 42.7664 30.0875 42.8802C30.393 42.9939 30.7184 43.0468 31.0448 43.036C31.453 43.0423 31.8591 42.9784 32.2448 42.847L44.4629 38.8216L69.8629 13.8171C70.496 13.1974 70.9967 12.4591 71.3354 11.6459C71.6741 10.8326 71.8439 9.96084 71.8349 9.08195C71.8597 8.19417 71.6973 7.31096 71.3581 6.48802C71.0189 5.66509 70.5101 4.92028 69.8639 4.30057ZM67.9399 11.925L43.0229 36.455L31.4298 40.2431L35.2778 28.8306L60.2439 4.25725C60.6288 3.88324 61.0849 3.58771 61.586 3.3876C62.0872 3.18749 62.6235 3.08674 63.1643 3.09113C63.7051 3.09552 64.2397 3.20496 64.7375 3.41318C65.2352 3.6214 65.6863 3.9243 66.0649 4.3045L67.9889 6.19855C68.7331 6.97473 69.1436 8.00416 69.1345 9.07147C69.1253 10.1388 68.6973 11.1613 67.9399 11.925Z" fill="white"/>
<path d="M58.2751 10.031C58.1485 9.90639 57.9982 9.80754 57.8328 9.7401C57.6674 9.67265 57.4901 9.63794 57.3111 9.63794C57.132 9.63794 56.9547 9.67265 56.7893 9.7401C56.6239 9.80754 56.4736 9.90639 56.3471 10.031C56.2205 10.1556 56.12 10.3036 56.0515 10.4664C55.983 10.6292 55.9478 10.8037 55.9478 10.98C55.9478 11.1562 55.983 11.3307 56.0515 11.4935C56.12 11.6564 56.2205 11.8043 56.3471 11.9289L60.2471 15.7169C60.3725 15.8416 60.5226 15.9396 60.6881 16.0048C60.8536 16.07 61.0309 16.101 61.2091 16.0959C61.5666 16.0924 61.9098 15.9572 62.1711 15.7169C62.4251 15.4652 62.5677 15.1247 62.5677 14.7699C62.5677 14.4151 62.4251 14.0746 62.1711 13.8229L58.2751 10.031Z" fill="white"/>
<path d="M38.9381 29.0681C38.6825 28.8164 38.3357 28.675 37.9741 28.675C37.6126 28.675 37.2658 28.8164 37.0101 29.0681C36.7545 29.3198 36.6108 29.6612 36.6108 30.0171C36.6108 30.373 36.7545 30.7144 37.0101 30.966L40.8582 34.754C40.9835 34.8787 41.1336 34.9767 41.2991 35.0419C41.4646 35.1071 41.642 35.1381 41.8202 35.133C42.1777 35.1295 42.5209 34.9943 42.7822 34.754C43.0362 34.5023 43.1788 34.1618 43.1788 33.807C43.1788 33.4522 43.0362 33.1118 42.7822 32.86L38.9381 29.0681Z" fill="white"/>
<path d="M26.1961 36.9335C26.1961 36.9335 26.1831 36.8558 26.1581 36.7061C26.1331 36.5565 26.0901 36.333 26.0131 36.0397C25.7821 35.1232 25.3059 34.2842 24.6341 33.6101C24.1337 33.1255 23.5364 32.7487 22.8801 32.5036C22.1751 32.2421 21.4327 32.091 20.6801 32.0557C19.0732 32.0078 17.4678 32.1918 15.9151 32.6021C15.8041 32.6277 15.6911 32.6602 15.5801 32.6877L16.2621 32.039C16.9901 31.341 17.7351 30.6322 18.4881 29.824C18.9186 29.3769 19.3078 28.893 19.6511 28.3779C19.7779 28.1814 19.886 27.9737 19.9741 27.7577L20.0571 27.5116L20.0931 27.3866C20.115 27.2893 20.1301 27.1906 20.1381 27.0913C20.1562 26.8666 20.1417 26.6405 20.0951 26.4199L20.0601 26.2791L20.0541 26.2555C20.1031 26.3539 19.7421 25.53 19.8061 25.7446C19.6872 25.5751 19.5421 25.425 19.3761 25.2996C19.2515 25.2096 19.1174 25.133 18.9761 25.0712C18.8767 25.0269 18.7732 24.992 18.6671 24.9669C18.5802 24.9446 18.4921 24.9272 18.4031 24.9147L18.2281 24.8989C18.1316 24.8929 18.0347 24.8929 17.9381 24.8989C17.7003 24.9112 17.4641 24.9442 17.2321 24.9974C16.6339 25.1407 16.0457 25.3219 15.4711 25.5398C14.9421 25.7367 14.4321 25.9336 13.9271 26.1305L10.9411 27.3462C9.42115 27.9644 7.89915 28.5817 6.42515 29.0906C7.16215 28.4074 7.93515 27.742 8.67915 27.1218C10.0501 25.9808 11.3941 24.9285 12.6471 23.9716C15.1561 22.0569 17.3051 20.5133 18.8121 19.4432L21.1831 17.7835L21.2311 17.75L21.2991 17.6998C21.5704 17.5007 21.7988 17.2504 21.9709 16.9635C22.143 16.6767 22.2555 16.359 22.3017 16.029C22.3479 15.6989 22.327 15.3632 22.2402 15.0412C22.1533 14.7192 22.0023 14.4174 21.7958 14.1534C21.5894 13.8894 21.3317 13.6685 21.0377 13.5034C20.7437 13.3384 20.4193 13.2326 20.0834 13.1922C19.7475 13.1517 19.4068 13.1775 19.081 13.2679C18.7553 13.3583 18.4511 13.5116 18.1861 13.7188L15.8161 15.5144C14.3221 16.6642 12.1981 18.3131 9.69615 20.3745C8.44515 21.4072 7.10215 22.5402 5.70415 23.7974C5.00415 24.4254 4.29315 25.085 3.57515 25.7928C2.80685 26.538 2.08361 27.3269 1.40915 28.1554C0.97029 28.6854 0.600734 29.2674 0.309151 29.888C0.197081 30.1409 0.112932 30.4049 0.058152 30.6755C0.0175084 30.8718 -0.00193361 31.0718 0.000151511 31.2721C0.000863667 31.5412 0.0412865 31.8088 0.120152 32.0665C0.120152 32.0715 0.273152 32.4682 0.211152 32.3067L0.221152 32.3284L0.241152 32.3717L0.288151 32.4702C0.333863 32.559 0.384266 32.6454 0.439152 32.7291C0.611161 32.9934 0.830762 33.2246 1.08715 33.4113C1.4267 33.6548 1.81384 33.8264 2.22415 33.9153C2.69276 34.0106 3.17383 34.0315 3.64915 33.9773C3.991 33.9417 4.33031 33.8855 4.66515 33.809C5.24726 33.675 5.82173 33.5107 6.38615 33.3168C8.53615 32.5775 10.5011 31.6787 12.4681 30.7937L13.2051 30.46C12.7461 30.9305 12.2861 31.3981 11.8341 31.8785C11.4941 32.2428 11.1581 32.6099 10.8211 33.0145C10.6531 33.2114 10.4821 33.4359 10.3051 33.6899C10.1978 33.8472 10.1016 34.0117 10.0171 34.1821C9.99015 34.2382 9.97215 34.2648 9.94015 34.3465C9.90815 34.4282 9.88015 34.5069 9.85515 34.5896C9.77593 34.8583 9.75313 35.1399 9.78815 35.4175C9.95115 36.0367 9.83815 35.6006 9.87715 35.7444L9.88515 35.764C9.92403 35.8584 9.97051 35.9496 10.0241 36.0367C10.1027 36.1618 10.1975 36.2763 10.3061 36.3773C10.3845 36.4522 10.471 36.5182 10.5641 36.5742C10.6208 36.608 10.6793 36.6389 10.7391 36.6668C10.7988 36.6945 10.8599 36.7191 10.9221 36.7406C10.9821 36.7613 11.0021 36.7652 11.0451 36.776C11.1201 36.7947 11.1961 36.8105 11.2731 36.8213C11.3501 36.8321 11.3731 36.8312 11.4311 36.8351C11.5141 36.8404 11.5972 36.8404 11.6801 36.8351C11.8775 36.8242 12.0736 36.7966 12.2661 36.7524C12.5661 36.6865 12.8051 36.6146 13.0381 36.5447L14.3311 36.1076C15.1471 35.8359 15.9151 35.5888 16.6521 35.385C17.9152 34.9955 19.2287 34.787 20.5521 34.7658C21.3664 34.7218 22.1687 34.9733 22.8071 35.4727C23.1675 35.8161 23.4281 36.2481 23.5621 36.7239C23.6236 36.9174 23.6721 37.1147 23.7071 37.3145V37.3352C23.7301 37.4988 23.786 37.6563 23.8717 37.7983C23.9574 37.9402 24.0712 38.0639 24.2062 38.162C24.3412 38.26 24.4948 38.3304 24.6579 38.3691C24.821 38.4078 24.9903 38.414 25.1559 38.3872C25.3215 38.3605 25.4799 38.3014 25.6219 38.2134C25.7639 38.1254 25.8866 38.0103 25.9827 37.8749C26.0788 37.7396 26.1464 37.5866 26.1815 37.4251C26.2166 37.2636 26.2185 37.0968 26.1871 36.9345L26.1961 36.9335ZM11.5601 33.7637H11.5781C11.5461 33.7676 11.5291 33.7676 11.5581 33.7637H11.5601Z" fill="white"/>
</svg>
