<svg width="47" height="53" viewBox="0 0 47 53" fill="none" xmlns="http://www.w3.org/2000/svg">
<path d="M3.2249 40.4826C3.22744 42.3574 3.92665 44.1666 5.19069 45.5689C6.45473 46.9712 8.19626 47.8698 10.0869 48.0952C10.6225 49.3342 11.4808 50.412 12.5751 51.2198C13.6694 52.0276 14.9609 52.5368 16.319 52.6959C17.6772 52.855 19.054 52.6584 20.3103 52.1259C21.5666 51.5935 22.6579 50.744 23.4739 49.6634C24.2899 50.744 25.3812 51.5935 26.6375 52.1259C27.8937 52.6584 29.2705 52.855 30.6287 52.6959C31.9869 52.5368 33.2784 52.0276 34.3727 51.2198C35.467 50.412 36.3253 49.3342 36.8609 48.0952C38.7505 47.8699 40.4912 46.9721 41.7551 45.5711C43.019 44.17 43.7189 42.3623 43.7229 40.4886C45.247 39.3653 46.2994 37.7306 46.6806 35.8943C47.0618 34.0581 46.7452 32.1479 45.7909 30.5262C46.4752 29.3608 46.8362 28.0388 46.8379 26.6928C46.8429 25.4731 46.5497 24.2702 45.983 23.1856C45.4163 22.101 44.5927 21.1666 43.5819 20.4614C43.6755 19.9882 43.7227 19.5072 43.7229 19.0251C43.7225 17.835 43.441 16.6612 42.9008 15.5965C42.3605 14.5318 41.5762 13.6053 40.6099 12.8902C40.6082 11.6625 40.3077 10.4531 39.7335 9.36322C39.1594 8.27338 38.3283 7.33486 37.3099 6.62624C36.9887 5.19344 36.2558 3.88174 35.1987 2.84742C34.1415 1.81309 32.8046 1.09975 31.3471 0.792366C29.8897 0.484985 28.3733 0.596528 26.9784 1.11371C25.5836 1.63088 24.3692 2.53189 23.4799 3.70939C22.5912 2.53007 21.3766 1.62733 19.9811 1.10887C18.5856 0.590417 17.068 0.478133 15.6094 0.785418C14.1508 1.0927 12.8128 1.80658 11.7551 2.84189C10.6973 3.87719 9.96444 5.19021 9.6439 6.62428C8.6252 7.3326 7.79389 8.27107 7.2197 9.36097C6.64551 10.4509 6.34518 11.6604 6.3439 12.8882C5.37798 13.6025 4.59382 14.528 4.05326 15.5916C3.51269 16.6552 3.23049 17.8279 3.2289 19.0172C3.22878 19.4993 3.276 19.9803 3.3699 20.4535C2.35906 21.1587 1.5355 22.0931 0.968784 23.1777C0.402069 24.2623 0.108851 25.4653 0.113899 26.6849C0.115558 28.031 0.476624 29.3529 1.1609 30.5183C0.206594 32.1401 -0.109987 34.0502 0.271188 35.8865C0.652363 37.7227 1.70479 39.3575 3.2289 40.4807L3.2249 40.4826ZM25.0319 42.9683L26.2989 42.3442C26.7319 42.1318 27.2091 42.0209 27.6929 42.0203H29.7049C30.1111 42.0102 30.4973 41.8442 30.781 41.5578C31.0646 41.2713 31.2234 40.8871 31.2234 40.4871C31.2234 40.087 31.0646 39.7028 30.781 39.4164C30.4973 39.1299 30.1111 38.964 29.7049 38.9538H27.6929C26.7726 38.956 25.8641 39.1576 25.0319 39.5445V29.1863C26.5055 28.5513 28.0963 28.2222 29.7049 28.2196C30.1111 28.2095 30.4973 28.0435 30.781 27.7571C31.0646 27.4707 31.2234 27.0864 31.2234 26.6864C31.2234 26.2864 31.0646 25.9021 30.781 25.6157C30.4973 25.3293 30.1111 25.1633 29.7049 25.1532C28.1161 25.1569 26.5383 25.4121 25.0319 25.9092V14.8935C26.0616 15.5836 27.2792 15.9514 28.5249 15.9488H31.2629C31.4707 15.9539 31.6775 15.9181 31.8711 15.8434C32.0647 15.7687 32.2411 15.6566 32.39 15.5137C32.5389 15.3708 32.6572 15.2 32.738 15.0114C32.8187 14.8228 32.8604 14.6202 32.8604 14.4155C32.8604 14.2108 32.8187 14.0082 32.738 13.8196C32.6572 13.631 32.5389 13.4602 32.39 13.3174C32.2411 13.1745 32.0647 13.0624 31.8711 12.9876C31.6775 12.9129 31.4707 12.8771 31.2629 12.8823H28.5249C28.1162 12.8828 27.7114 12.8037 27.3338 12.6496C26.9563 12.4956 26.6134 12.2695 26.3249 11.9845L25.0349 10.7146V8.28303C25.0329 7.19884 25.4205 6.14887 26.1289 5.31878C26.8374 4.48869 27.8212 3.93194 28.9064 3.74696C29.9916 3.56197 31.1083 3.76068 32.0591 4.30794C33.0098 4.8552 33.7334 5.71576 34.1019 6.73748L31.2729 6.72272H31.2619C30.8555 6.73134 30.4687 6.89594 30.1839 7.1814C29.8991 7.46686 29.7389 7.85057 29.7375 8.25068C29.736 8.65079 29.8935 9.03561 30.1762 9.32304C30.459 9.61047 30.8446 9.77776 31.2509 9.78921L35.8749 9.82071H35.8859C36.0066 9.8198 36.1267 9.80493 36.2439 9.77641C37.0428 10.6222 37.4888 11.7332 37.4929 12.8882C37.4929 12.9502 37.4929 13.0181 37.4849 13.0851L35.7199 15.2813C34.8662 16.3486 34.395 17.6638 34.3799 19.0221H29.7049C29.497 19.017 29.2902 19.0528 29.0967 19.1275C28.9031 19.2022 28.7267 19.3143 28.5778 19.4572C28.4289 19.6001 28.3106 19.7709 28.2298 19.9595C28.149 20.1481 28.1074 20.3507 28.1074 20.5554C28.1074 20.7601 28.149 20.9627 28.2298 21.1513C28.3106 21.3399 28.4289 21.5107 28.5778 21.6536C28.7267 21.7964 28.9031 21.9086 29.0967 21.9833C29.2902 22.058 29.497 22.0938 29.7049 22.0886H34.3779V23.6224C34.3726 23.827 34.409 24.0306 34.4849 24.2211C34.5608 24.4117 34.6747 24.5854 34.8198 24.7319C34.965 24.8785 35.1385 24.9949 35.3301 25.0745C35.5216 25.154 35.7275 25.195 35.9354 25.195C36.1433 25.195 36.3491 25.154 36.5407 25.0745C36.7323 24.9949 36.9058 24.8785 37.0509 24.7319C37.1961 24.5854 37.31 24.4117 37.3859 24.2211C37.4618 24.0306 37.4982 23.827 37.4929 23.6224V19.0842C37.494 18.3941 37.7303 17.7244 38.1639 17.1823L39.2639 15.8041C39.8889 16.4252 40.319 17.2104 40.5029 18.0658C40.6868 18.9212 40.6166 19.8106 40.3009 20.6277C40.1648 20.9854 40.1691 21.3801 40.313 21.7348C40.4568 22.0894 40.73 22.3785 41.0789 22.5454C42.114 23.0371 42.9285 23.8874 43.3664 24.9335C43.8042 25.9796 43.8347 27.1479 43.4519 28.2147H37.4929C37.285 28.2095 37.0782 28.2454 36.8847 28.3201C36.6911 28.3948 36.5147 28.5069 36.3658 28.6498C36.2169 28.7927 36.0986 28.9635 36.0178 29.1521C35.937 29.3407 35.8954 29.5433 35.8954 29.748C35.8954 29.9526 35.937 30.1553 36.0178 30.3439C36.0986 30.5325 36.2169 30.7032 36.3658 30.8461C36.5147 30.989 36.6911 31.1011 36.8847 31.1758C37.0782 31.2506 37.285 31.2864 37.4929 31.2812H42.5639C42.6023 31.3501 42.6461 31.4159 42.6949 31.4781C43.3633 32.2913 43.7264 33.3065 43.7229 34.3526C43.7213 35.3769 43.3722 36.3713 42.7309 37.1779C42.1682 36.3125 41.3935 35.6002 40.478 35.1065C39.5625 34.6128 38.5357 34.3535 37.4919 34.3526H34.3779C33.9649 34.3524 33.569 34.1908 33.2769 33.9035C32.9848 33.6161 32.8204 33.2264 32.8199 32.8199C32.8252 32.6152 32.7888 32.4117 32.7129 32.2211C32.637 32.0306 32.5231 31.8569 32.3779 31.7103C32.2328 31.5638 32.0593 31.4473 31.8677 31.3678C31.6761 31.2882 31.4703 31.2473 31.2624 31.2473C31.0545 31.2473 30.8486 31.2882 30.6571 31.3678C30.4655 31.4473 30.292 31.5638 30.1469 31.7103C30.0017 31.8569 29.8878 32.0306 29.8119 32.2211C29.736 32.4117 29.6996 32.6152 29.7049 32.8199C29.7062 34.0395 30.199 35.2089 31.075 36.0713C31.9511 36.9337 33.1389 37.4188 34.3779 37.4201H37.4929C38.3194 37.4206 39.1119 37.7441 39.6964 38.3194C40.2808 38.8947 40.6094 39.6749 40.6099 40.4886C40.6086 41.4947 40.2724 42.4726 39.6528 43.2727C39.0331 44.0728 38.1641 44.6509 37.1789 44.9185L36.6859 42.4899C36.6049 42.0912 36.3663 41.7405 36.0226 41.515C35.679 41.2895 35.2584 41.2077 34.8534 41.2874C34.4484 41.3672 34.0922 41.602 33.8631 41.9404C33.634 42.2787 33.5509 42.6927 33.6319 43.0914L34.2549 46.1579C34.2469 46.1835 34.2339 46.2071 34.2279 46.2337C33.9714 47.2221 33.3879 48.0984 32.5694 48.7242C31.751 49.35 30.7442 49.6898 29.7079 49.69C29.4281 49.6885 29.149 49.6625 28.8739 49.6122L30.8099 47.7044C30.9644 47.5645 31.0886 47.3953 31.175 47.2069C31.2614 47.0185 31.3082 46.8149 31.3126 46.6082C31.317 46.4016 31.2789 46.1962 31.2006 46.0045C31.1223 45.8127 31.0054 45.6385 30.8569 45.4923C30.7085 45.3462 30.5315 45.2311 30.3367 45.154C30.1419 45.0769 29.9333 45.0394 29.7234 45.0437C29.5135 45.0481 29.3066 45.0941 29.1153 45.1792C28.9239 45.2642 28.752 45.3865 28.6099 45.5387L26.1019 48.0076C25.4131 47.1865 25.0369 46.1546 25.0379 45.0898L25.0319 42.9683ZM7.8979 28.2196H3.4919C3.10887 27.1528 3.1392 25.9844 3.57709 24.9383C4.01497 23.8921 4.82961 23.0418 5.8649 22.5503C6.21382 22.3834 6.48695 22.0944 6.63083 21.7397C6.77472 21.385 6.77902 20.9903 6.6429 20.6327C6.34296 19.8577 6.26464 19.0166 6.41644 18.2008C6.56825 17.385 6.94437 16.6259 7.5039 16.0059L10.6099 21.1426C10.6471 21.2035 10.6882 21.262 10.7329 21.3178C11.0249 21.6771 11.3566 22.0033 11.7219 22.2904L9.90989 24.0693C9.64416 24.3614 9.50219 24.7427 9.51317 25.1347C9.52414 25.5267 9.68723 25.8997 9.9689 26.177C10.2506 26.4542 10.6295 26.6148 11.0277 26.6256C11.4259 26.6364 11.8131 26.4966 12.1099 26.235L14.8199 23.5672C15.0756 23.5991 15.3331 23.6155 15.5909 23.6165H17.2389C17.6451 23.6063 18.0313 23.4403 18.315 23.1539C18.5986 22.8675 18.7574 22.4833 18.7574 22.0832C18.7574 21.6832 18.5986 21.299 18.315 21.0125C18.0313 20.7261 17.6451 20.5601 17.2389 20.55H15.5949C15.1439 20.5511 14.6981 20.4552 14.2886 20.2692C13.8791 20.0832 13.5157 19.8115 13.2239 19.473L9.4769 13.2652C9.4649 13.1264 9.4549 12.9975 9.4549 12.8833C9.45862 12.1348 9.64772 11.3985 10.0058 10.7382C10.3639 10.078 10.8802 9.51366 11.5099 9.0942L14.2099 10.4242C14.3928 10.5142 14.592 10.5679 14.796 10.5822C15 10.5964 15.2049 10.571 15.3989 10.5073C15.5929 10.4437 15.7723 10.343 15.9268 10.2111C16.0813 10.0792 16.2079 9.91859 16.2994 9.73851C16.3909 9.55843 16.4454 9.36237 16.4599 9.16154C16.4744 8.96071 16.4486 8.75903 16.3839 8.56803C16.3192 8.37702 16.217 8.20042 16.083 8.04832C15.949 7.89622 15.7858 7.77159 15.6029 7.68155L12.9899 6.3949C13.4286 5.43609 14.1881 4.65439 15.1416 4.18021C16.0951 3.70603 17.1849 3.56806 18.2292 3.78932C19.2736 4.01057 20.2092 4.57767 20.8802 5.39599C21.5511 6.21432 21.9167 7.23438 21.9159 8.28599V13.9405C20.8861 13.2504 19.6686 12.8826 18.4229 12.8852H17.2429C16.8367 12.8954 16.4505 13.0613 16.1668 13.3478C15.8831 13.6342 15.7244 14.0184 15.7244 14.4185C15.7244 14.8185 15.8831 15.2027 16.1668 15.4892C16.4505 15.7756 16.8367 15.9416 17.2429 15.9517H18.4229C18.8316 15.9512 19.2364 16.0303 19.614 16.1843C19.9915 16.3384 20.3344 16.5645 20.6229 16.8495L21.9129 18.1194V27.2155C20.5935 27.6071 19.1723 27.4907 17.9369 26.8897C17.5691 26.7208 17.1488 26.6999 16.7656 26.8314C16.3823 26.9629 16.0664 27.2364 15.8849 27.5938C15.7034 27.9511 15.6707 28.3641 15.7937 28.7448C15.9168 29.1255 16.186 29.4439 16.5439 29.6323C17.7275 30.2148 19.0326 30.5181 20.3559 30.5183C20.8789 30.5137 21.4004 30.4623 21.9139 30.3647V35.8893H18.5739C17.9944 35.8904 17.4262 35.7317 16.9338 35.431C16.4413 35.1303 16.0444 34.6998 15.7879 34.1882L14.7429 32.1308C14.5582 31.7671 14.2343 31.4905 13.8424 31.3619C13.4505 31.2333 13.0228 31.2633 12.6534 31.4451C12.2839 31.627 12.003 31.9458 11.8724 32.3316C11.7418 32.7173 11.7722 33.1384 11.9569 33.5021L13.0009 35.5664C13.5154 36.5876 14.3102 37.4466 15.2952 38.046C16.2801 38.6453 17.4159 38.9612 18.5739 38.9578H21.9169V45.0907C21.9151 46.0409 21.6148 46.9673 21.0571 47.7428C20.4994 48.5182 19.7117 49.1049 18.8019 49.4222V46.9927C18.8042 46.1866 18.644 45.388 18.3306 44.6433C18.0171 43.8986 17.5567 43.2226 16.9759 42.6543L15.2289 40.9355C15.0876 40.7801 14.9156 40.6548 14.7234 40.5671C14.5312 40.4794 14.3229 40.4312 14.1111 40.4255C13.8994 40.4197 13.6887 40.4565 13.4919 40.5337C13.2951 40.6108 13.1163 40.7266 12.9665 40.8741C12.8168 41.0215 12.6991 41.1975 12.6207 41.3913C12.5424 41.585 12.505 41.7924 12.5108 42.0009C12.5166 42.2093 12.5656 42.4144 12.6547 42.6036C12.7438 42.7928 12.8711 42.9621 13.0289 43.1012L14.7729 44.82C15.0626 45.1039 15.2924 45.4414 15.4491 45.8131C15.6058 46.1848 15.6863 46.5833 15.6859 46.9858V49.4153C14.9639 49.1635 14.316 48.7406 13.7993 48.1841C13.2826 47.6275 12.9129 46.9543 12.7229 46.2238C12.6372 45.8941 12.4425 45.6019 12.1694 45.3932C11.8964 45.1845 11.5606 45.0711 11.2149 45.0711H11.1579L11.0129 45.0789C9.77567 45.0776 8.58936 44.5939 7.71357 43.7336C6.83779 42.8733 6.34386 41.7065 6.3399 40.4886C6.3399 40.4452 6.3399 40.397 6.3459 40.3507L8.9999 37.7322C9.15444 37.5923 9.27865 37.423 9.36505 37.2347C9.45145 37.0463 9.49825 36.8426 9.50265 36.636C9.50704 36.4294 9.46894 36.224 9.39063 36.0322C9.31232 35.8404 9.19541 35.6662 9.04695 35.5201C8.89849 35.3739 8.72154 35.2589 8.52673 35.1818C8.33193 35.1047 8.1233 35.0672 7.91339 35.0715C7.70348 35.0758 7.49663 35.1219 7.30527 35.207C7.11392 35.292 6.94201 35.4143 6.7999 35.5664L4.6699 37.6632C4.21549 37.2352 3.85355 36.7213 3.60577 36.1522C3.35799 35.5832 3.22946 34.9708 3.2279 34.3516C3.22441 33.3056 3.58748 32.2903 4.2559 31.4771C4.30449 31.4148 4.34828 31.349 4.3869 31.2802H7.8999C8.10775 31.2854 8.31456 31.2496 8.50813 31.1749C8.7017 31.1001 8.87812 30.988 9.02699 30.8451C9.17587 30.7023 9.29418 30.5315 9.37496 30.3429C9.45575 30.1543 9.49736 29.9517 9.49736 29.747C9.49736 29.5423 9.45575 29.3397 9.37496 29.1511C9.29418 28.9625 9.17587 28.7917 9.02699 28.6488C8.87812 28.5059 8.7017 28.3938 8.50813 28.3191C8.31456 28.2444 8.10775 28.2085 7.8999 28.2137L7.8979 28.2196Z" fill="white"/>
</svg>
