<svg width="26" height="24" viewBox="0 0 26 24" fill="none" xmlns="http://www.w3.org/2000/svg">
<path d="M24.1045 0.267236L1.01205 9.94431C1.01205 9.94431 -0.0798124 10.3466 0.00466033 11.0812C0.0891331 11.8157 0.982375 12.1571 0.982375 12.1571L6.79216 14.2457C6.79216 14.2457 8.54611 20.3898 8.89142 21.5589C9.23673 22.7279 9.51355 22.752 9.51355 22.752C9.61468 22.792 9.72439 22.8049 9.83194 22.7894C9.93948 22.7738 10.0412 22.7305 10.1271 22.6635L13.881 19.0081L19.7319 23.8004C19.9221 23.9099 20.1338 23.9763 20.3522 23.9947C20.5706 24.0131 20.7903 23.9833 20.996 23.9071C21.2016 23.831 21.3883 23.7105 21.5428 23.5541C21.6974 23.3976 21.816 23.209 21.8905 23.0015L26 0.850608C26.0023 -0.624777 24.1045 0.267236 24.1045 0.267236ZM20.0161 21.2203L13.7554 16.0947L11.8149 17.9856L12.2418 13.9624L20.5846 5.9998L9.21162 12.7968L4.16665 10.9858L23.4144 2.91856L20.0161 21.2203Z" fill="white"/>
</svg>
