<svg width="29" height="29" viewBox="0 0 29 29" fill="none" xmlns="http://www.w3.org/2000/svg">
<path fill-rule="evenodd" clip-rule="evenodd" d="M14.5 29C22.5082 29 29 22.5081 29 14.5C29 6.49194 22.5082 0 14.5 0C6.49182 0 0 6.49194 0 14.5C0 22.5081 6.49182 29 14.5 29ZM10.2072 8.79297C9.81653 8.40234 9.18347 8.40234 8.79285 8.79297C8.40234 9.18335 8.40234 9.81665 8.79285 10.207L13.0858 14.5L8.79285 18.793C8.40234 19.1833 8.40234 19.8167 8.79285 20.207C9.18347 20.5977 9.81653 20.5977 10.2072 20.207L14.5 15.9143L18.7928 20.207C19.1835 20.5977 19.8165 20.5977 20.2072 20.207C20.5977 19.8167 20.5977 19.1833 20.2072 18.793L15.9142 14.5L20.2072 10.207C20.5977 9.81665 20.5977 9.18335 20.2072 8.79297C19.8165 8.40234 19.1835 8.40234 18.7928 8.79297L14.5 13.0857L10.2072 8.79297Z" fill="white"/>
</svg>
