<svg width="38" height="23" viewBox="0 0 38 23" fill="none" xmlns="http://www.w3.org/2000/svg">
<path d="M30.3131 5.00036C30.2473 4.93554 30.1691 4.88412 30.0831 4.84904C29.997 4.81396 29.9048 4.7959 29.8117 4.7959C29.7186 4.7959 29.6264 4.81396 29.5403 4.84904C29.4543 4.88412 29.3761 4.93554 29.3102 5.00036C29.2444 5.06519 29.1922 5.14215 29.1565 5.22684C29.1209 5.31154 29.1025 5.40232 29.1025 5.49399C29.1025 5.58567 29.1209 5.67644 29.1565 5.76114C29.1922 5.84584 29.2444 5.92279 29.3102 5.98762L31.3389 7.95802C31.4042 8.0229 31.4822 8.07388 31.5683 8.10779C31.6544 8.14171 31.7467 8.15783 31.8394 8.15517C32.0253 8.15334 32.2039 8.08301 32.3398 7.95802C32.4719 7.82708 32.5461 7.64999 32.5461 7.46542C32.5461 7.28085 32.4719 7.10376 32.3398 6.97282L30.3131 5.00036Z" fill="white"/>
<path d="M36.3414 2.01963L35.3406 1.0344C35.0144 0.706794 34.6251 0.446562 34.1954 0.268944C33.7658 0.0913259 33.3045 -0.000107418 32.8385 9.47054e-08V9.47054e-08C31.9025 0.00201978 31.0045 0.364459 30.3365 1.00982L17.2244 13.9172L17.099 14.0406L14.9726 20.2972C14.861 20.5485 14.8252 20.8261 14.8696 21.0969C14.914 21.3677 15.0366 21.6202 15.2228 21.8242C15.3463 21.939 15.4917 22.0286 15.6507 22.0878C15.8096 22.1469 15.9789 22.1745 16.1487 22.1688C16.361 22.1721 16.5722 22.1389 16.7729 22.0705L23.1284 19.9766L36.3409 6.96988C36.6702 6.64753 36.9307 6.26351 37.1068 5.84048C37.283 5.41745 37.3714 4.96397 37.3666 4.50679C37.3796 4.04499 37.2951 3.58556 37.1186 3.15749C36.9422 2.72942 36.6775 2.34199 36.3414 2.01963V2.01963ZM35.3406 5.98567L22.3793 18.7456L16.3489 20.7161L18.3506 14.7796L31.3373 1.9971C31.5375 1.80255 31.7748 1.64882 32.0354 1.54473C32.2961 1.44064 32.5751 1.38823 32.8564 1.39051C33.1378 1.3928 33.4158 1.44973 33.6748 1.55804C33.9337 1.66635 34.1683 1.82391 34.3652 2.02168L35.3661 3.00692C35.7532 3.41066 35.9667 3.94615 35.962 4.50134C35.9572 5.05653 35.7346 5.5884 35.3406 5.98567V5.98567Z" fill="white"/>
<path d="M20.2546 14.9032C20.1216 14.7723 19.9412 14.6987 19.7531 14.6987C19.565 14.6987 19.3846 14.7723 19.2517 14.9032C19.1187 15.0341 19.0439 15.2117 19.0439 15.3968C19.0439 15.582 19.1187 15.7595 19.2517 15.8904L21.2533 17.8609C21.3185 17.9257 21.3966 17.9767 21.4827 18.0106C21.5688 18.0445 21.661 18.0607 21.7537 18.058C21.9397 18.0562 22.1182 17.9858 22.2541 17.8609C22.3863 17.7299 22.4604 17.5528 22.4604 17.3683C22.4604 17.1837 22.3863 17.0066 22.2541 16.8757L20.2546 14.9032Z" fill="white"/>
<path d="M13.6266 18.9946C13.6266 18.9946 13.6198 18.9541 13.6068 18.8763C13.5938 18.7985 13.5714 18.6822 13.5314 18.5296C13.4112 18.0529 13.1635 17.6165 12.8141 17.2658C12.5538 17.0138 12.2431 16.8178 11.9017 16.6903C11.5349 16.5542 11.1488 16.4756 10.7573 16.4573C9.92142 16.4323 9.08634 16.5281 8.27867 16.7415C8.22093 16.7548 8.16215 16.7717 8.10441 16.786L8.45917 16.4486C8.83785 16.0855 9.22538 15.7168 9.61708 15.2964C9.84101 15.0638 10.0435 14.8121 10.222 14.5442C10.288 14.4419 10.3442 14.3339 10.3901 14.2216L10.4332 14.0935L10.452 14.0285C10.4633 13.9779 10.4712 13.9266 10.4754 13.8749C10.4848 13.758 10.4772 13.6404 10.453 13.5256L10.4348 13.4524L10.4317 13.4401C10.4572 13.4913 10.2694 13.0627 10.3027 13.1744C10.2408 13.0862 10.1653 13.0081 10.079 12.9429C10.0142 12.8961 9.9444 12.8563 9.87092 12.8241C9.8192 12.8011 9.76538 12.7829 9.71019 12.7698C9.66496 12.7583 9.61912 12.7492 9.57286 12.7427L9.48183 12.7345C9.4316 12.7313 9.38121 12.7313 9.33098 12.7345C9.20727 12.7409 9.08438 12.758 8.96374 12.7857C8.65255 12.8603 8.34657 12.9545 8.04771 13.0679C7.77254 13.1703 7.50725 13.2727 7.24456 13.3751L5.69131 14.0075C4.90065 14.3291 4.10894 14.6502 3.3422 14.9149C3.72557 14.5595 4.12767 14.2134 4.51468 13.8908C5.22784 13.2973 5.92695 12.7499 6.57873 12.2521C7.88385 11.2561 9.00171 10.4532 9.78561 9.89657L11.0189 9.03322L11.0439 9.01581L11.0793 8.98969C11.2204 8.8861 11.3392 8.75591 11.4287 8.6067C11.5183 8.45749 11.5767 8.29223 11.6008 8.12056C11.6248 7.94889 11.614 7.77422 11.5688 7.60673C11.5236 7.43923 11.445 7.28225 11.3377 7.14493C11.2303 7.00761 11.0962 6.89268 10.9433 6.80684C10.7904 6.721 10.6216 6.66596 10.4469 6.64492C10.2722 6.62388 10.0949 6.63727 9.92549 6.6843C9.75606 6.73133 9.59782 6.81106 9.45998 6.91886L8.22717 7.85289C7.45003 8.45099 6.34518 9.30871 5.0437 10.381C4.39296 10.9182 3.69436 11.5076 2.96716 12.1615C2.60304 12.4882 2.23319 12.8313 1.85971 13.1995C1.46006 13.5871 1.08384 13.9974 0.733006 14.4284C0.504721 14.7041 0.312487 15.0069 0.160813 15.3297C0.102517 15.4612 0.0587447 15.5986 0.0302493 15.7393C0.00910744 15.8414 -0.00100582 15.9455 7.88125e-05 16.0497C0.000449258 16.1897 0.0214762 16.3289 0.0625003 16.4629C0.0625003 16.4655 0.142087 16.6718 0.109836 16.5879L0.115038 16.5991L0.125442 16.6217L0.149889 16.6729C0.173667 16.7191 0.199886 16.764 0.228436 16.8075C0.317911 16.945 0.432142 17.0653 0.565509 17.1624C0.742135 17.2891 0.943517 17.3784 1.15695 17.4246C1.40071 17.4741 1.65095 17.485 1.8982 17.4568C2.07602 17.4383 2.25252 17.4091 2.4267 17.3693C2.72949 17.2996 3.02832 17.2141 3.32192 17.1132C4.44029 16.7287 5.46244 16.2611 6.48562 15.8008L6.86899 15.6272C6.63023 15.872 6.39095 16.1152 6.15583 16.3651C5.97897 16.5546 5.80419 16.7456 5.62889 16.956C5.5415 17.0585 5.45255 17.1752 5.36048 17.3073C5.30464 17.3892 5.25459 17.4747 5.21067 17.5634C5.19663 17.5925 5.18727 17.6064 5.17062 17.6489C5.15397 17.6914 5.13941 17.7323 5.12641 17.7754C5.0852 17.9151 5.07334 18.0616 5.09155 18.206C5.17634 18.5281 5.11756 18.3013 5.13785 18.376L5.14201 18.3863C5.16224 18.4354 5.18642 18.4828 5.21431 18.5281C5.2552 18.5932 5.30451 18.6527 5.361 18.7053C5.40174 18.7442 5.44676 18.7786 5.49521 18.8077C5.5247 18.8253 5.55509 18.8413 5.58624 18.8558C5.61727 18.8703 5.64905 18.8831 5.68143 18.8942C5.71264 18.905 5.72305 18.907 5.74541 18.9127C5.78443 18.9224 5.82396 18.9306 5.86401 18.9362C5.90407 18.9419 5.91603 18.9413 5.9462 18.9434C5.98933 18.9462 6.0326 18.9462 6.07572 18.9434C6.1784 18.9377 6.28039 18.9233 6.38055 18.9004C6.5366 18.8661 6.66092 18.8287 6.78212 18.7923L7.45471 18.565C7.87917 18.4236 8.27867 18.2951 8.66203 18.1891C9.31906 17.9865 10.0023 17.878 10.6907 17.867C11.1143 17.8441 11.5316 17.9749 11.8637 18.2347C12.0511 18.4133 12.1867 18.638 12.2564 18.8855C12.2884 18.9862 12.3136 19.0888 12.3319 19.1928V19.2035C12.3438 19.2886 12.3729 19.3705 12.4175 19.4444C12.4621 19.5183 12.5212 19.5826 12.5915 19.6336C12.6617 19.6846 12.7416 19.7212 12.8264 19.7414C12.9113 19.7615 12.9994 19.7647 13.0855 19.7508C13.1716 19.7369 13.254 19.7061 13.3279 19.6603C13.4018 19.6146 13.4656 19.5547 13.5156 19.4843C13.5656 19.4139 13.6007 19.3343 13.619 19.2503C13.6372 19.1663 13.6382 19.0795 13.6219 18.9951L13.6266 18.9946ZM6.0133 17.3457H6.02267C6.00602 17.3478 5.99718 17.3478 6.01226 17.3457H6.0133Z" fill="white"/>
</svg>
