<svg width="27" height="27" viewBox="0 0 27 27" fill="none" xmlns="http://www.w3.org/2000/svg">
<path d="M13.2749 0C12.53 0.00117044 11.8 0.206089 11.1665 0.591888C10.533 0.977687 10.0209 1.52919 9.6872 2.18486C9.35355 2.84053 9.21153 3.57457 9.27698 4.30507C9.34244 5.03558 9.61279 5.73381 10.0579 6.32186C10.503 6.9099 11.1053 7.36463 11.7976 7.6353C12.49 7.90596 13.2451 7.98193 13.9787 7.8547C14.7124 7.72748 15.3957 7.40208 15.9524 6.91481C16.5091 6.42754 16.9173 5.79757 17.1315 5.0952C18.6096 5.70375 19.9187 6.65079 20.9502 7.85762C21.9817 9.06445 22.7057 10.4962 23.062 12.0339L22.082 11.5515C21.8906 11.458 21.6695 11.4428 21.4667 11.5093C21.264 11.5757 21.0963 11.7185 21.0001 11.9063C20.9039 12.0941 20.8871 12.3118 20.9534 12.5117C21.0197 12.7117 21.1636 12.8777 21.3538 12.9736L23.7658 14.1606C23.9416 14.2469 24.1434 14.2669 24.3332 14.2168C24.5229 14.1667 24.6875 14.05 24.7958 13.8886L26.4036 11.5141C26.4648 11.4281 26.5079 11.331 26.5304 11.2284C26.5529 11.1257 26.5544 11.0198 26.5348 10.9166C26.5151 10.8134 26.4748 10.7151 26.4161 10.6274C26.3574 10.5398 26.2816 10.4646 26.193 10.4061C26.1044 10.3477 26.0049 10.3073 25.9002 10.2872C25.7955 10.2671 25.6879 10.2678 25.5835 10.2892C25.4791 10.3106 25.3801 10.3523 25.2922 10.4118C25.2044 10.4713 25.1295 10.5475 25.072 10.6359L24.557 11.3902C24.0831 9.58731 23.1711 7.92485 21.8995 6.54599C20.628 5.16713 19.0351 4.11321 17.2579 3.47498C17.1375 2.51773 16.6665 1.63661 15.9332 0.996856C15.1999 0.357102 14.2547 0.00265977 13.2749 0V0ZM13.2749 1.58284C13.752 1.58284 14.2183 1.7221 14.615 1.98302C15.0117 2.24393 15.3208 2.61478 15.5034 3.04867C15.6859 3.48256 15.7337 3.95999 15.6406 4.4206C15.5476 4.88121 15.3178 5.30431 14.9805 5.63639C14.6432 5.96848 14.2134 6.19463 13.7455 6.28625C13.2776 6.37787 12.7926 6.33085 12.3519 6.15112C11.9111 5.9714 11.5344 5.66705 11.2694 5.27657C11.0043 4.88608 10.8629 4.42699 10.8629 3.95736C10.8612 3.64508 10.9225 3.33557 11.0431 3.04674C11.1637 2.75792 11.3414 2.49551 11.5657 2.27469C11.79 2.05387 12.0565 1.87903 12.3499 1.76027C12.6433 1.64152 12.9577 1.58121 13.2749 1.58284V1.58284ZM4.35705 4.74852C4.25147 4.7534 4.14791 4.77869 4.05227 4.82297C3.95662 4.86725 3.87078 4.92964 3.79963 5.00657C3.72848 5.08351 3.67342 5.17349 3.63759 5.27138C3.60177 5.36926 3.58588 5.47314 3.59083 5.57707C3.59578 5.681 3.62148 5.78295 3.66646 5.87711C3.71143 5.97126 3.77481 6.05577 3.85296 6.12581C3.93111 6.19585 4.02252 6.25006 4.12195 6.28533C4.22138 6.32059 4.3269 6.33624 4.43247 6.33136H4.84861C3.60345 7.61713 2.67761 9.16924 2.14363 10.8661C1.60964 12.563 1.48201 14.3585 1.77073 16.1121C0.972081 16.6437 0.393752 17.4398 0.140911 18.3557C-0.111931 19.2716 -0.022493 20.2464 0.392962 21.1028C0.808417 21.9593 1.5223 22.6405 2.40479 23.0226C3.28728 23.4047 4.27978 23.4624 5.2018 23.1851C6.12383 22.9078 6.91415 22.314 7.42905 21.5116C7.94395 20.7092 8.14924 19.7515 8.00759 18.8128C7.86593 17.874 7.38674 17.0164 6.65715 16.396C5.92756 15.7756 4.99603 15.4335 4.03194 15.4321C3.79156 15.4354 3.55199 15.4603 3.31618 15.5063C3.25887 15.0882 3.22951 14.6669 3.22827 14.2451C3.22662 12.8839 3.51151 11.5373 4.06498 10.29C4.61845 9.04265 5.42849 7.9218 6.44399 6.99809V8.30902C6.44126 8.41464 6.46004 8.51974 6.49921 8.6181C6.53838 8.71647 6.59716 8.80613 6.67209 8.88178C6.74701 8.95744 6.83656 9.01757 6.93545 9.05862C7.03435 9.09967 7.14059 9.12083 7.24792 9.12083C7.35525 9.12083 7.46149 9.09967 7.56039 9.05862C7.65929 9.01757 7.74883 8.95744 7.82376 8.88178C7.89868 8.80613 7.95746 8.71647 7.99663 8.6181C8.03581 8.51974 8.05458 8.41464 8.05185 8.30902V5.53866C8.05185 5.32878 7.9672 5.1275 7.81649 4.97904C7.66579 4.83059 7.46138 4.74712 7.24818 4.74699H4.43195C4.40698 4.74699 4.38202 4.7475 4.35705 4.74852ZM22.5216 15.4331C21.7482 15.4315 20.9909 15.6499 20.3407 16.062C19.6904 16.4741 19.175 17.0623 18.8563 17.7559C18.5376 18.4496 18.4292 19.2191 18.5442 19.9719C18.6592 20.7247 18.9927 21.4288 19.5046 21.9995C18.2311 22.9945 16.731 23.6698 15.1335 23.9672C13.5359 24.2645 11.8889 24.175 10.3344 23.7062L11.2265 23.2613C11.322 23.2146 11.4072 23.1498 11.4772 23.0705C11.5472 22.9913 11.6005 22.8993 11.6343 22.7997C11.668 22.7001 11.6813 22.5949 11.6736 22.4902C11.6658 22.3855 11.6371 22.2833 11.5891 22.1895C11.5411 22.0958 11.4747 22.0123 11.3938 21.9439C11.3129 21.8755 11.2191 21.8235 11.1177 21.791C11.0163 21.7584 10.9094 21.7459 10.8031 21.7542C10.6968 21.7625 10.5932 21.7914 10.4982 21.8392L8.08618 23.0262C7.89643 23.1215 7.75284 23.287 7.68691 23.4864C7.62099 23.6858 7.63812 23.9028 7.73455 24.0898L8.94187 26.4643C8.98276 26.5666 9.04485 26.6595 9.12419 26.7369C9.20352 26.8142 9.29837 26.8745 9.40268 26.9138C9.50699 26.9532 9.61847 26.9707 9.73003 26.9652C9.84159 26.9598 9.95077 26.9315 10.0506 26.8823C10.1505 26.833 10.2388 26.7638 10.31 26.679C10.3812 26.5943 10.4336 26.4959 10.464 26.3901C10.4945 26.2843 10.5022 26.1734 10.4866 26.0645C10.4711 25.9556 10.4327 25.8511 10.3739 25.7576L10.1476 25.2998C11.9846 25.804 13.9194 25.8556 15.7814 25.4502C17.6434 25.0447 19.3756 24.1947 20.8253 22.975C21.3557 23.2206 21.9349 23.3473 22.521 23.3457C23.5872 23.3457 24.6097 22.9288 25.3636 22.1867C26.1174 21.4445 26.541 20.4379 26.541 19.3884C26.541 18.3388 26.1174 17.3323 25.3636 16.5901C24.6097 15.848 23.5872 15.431 22.521 15.431L22.5216 15.4331ZM4.03038 17.0164C4.50744 17.0164 4.97378 17.1557 5.37044 17.4166C5.7671 17.6775 6.07626 18.0484 6.25882 18.4823C6.44139 18.9161 6.48915 19.3936 6.39608 19.8542C6.30301 20.3148 6.07329 20.7379 5.73596 21.07C5.39862 21.4021 4.96884 21.6282 4.50094 21.7198C4.03305 21.8115 3.54807 21.7644 3.10732 21.5847C2.66658 21.405 2.28987 21.1006 2.02483 20.7102C1.75979 20.3197 1.61832 19.8606 1.61832 19.3909C1.61667 19.0787 1.67793 18.7692 1.79856 18.4803C1.91919 18.1915 2.0968 17.9291 2.32111 17.7083C2.54542 17.4875 2.81198 17.3126 3.10537 17.1939C3.39876 17.0751 3.71316 17.0148 4.03038 17.0164ZM22.5216 17.0164C22.9986 17.0164 23.465 17.1557 23.8616 17.4166C24.2583 17.6775 24.5675 18.0484 24.75 18.4823C24.9326 18.9161 24.9803 19.3936 24.8873 19.8542C24.7942 20.3148 24.5645 20.7379 24.2271 21.07C23.8898 21.4021 23.46 21.6282 22.9921 21.7198C22.5242 21.8115 22.0393 21.7644 21.5985 21.5847C21.1578 21.405 20.7811 21.1006 20.516 20.7102C20.251 20.3197 20.1095 19.8606 20.1095 19.3909C20.1079 19.0787 20.1691 18.7692 20.2898 18.4803C20.4104 18.1915 20.588 17.9291 20.8123 17.7083C21.0366 17.4875 21.3032 17.3126 21.5966 17.1939C21.89 17.0751 22.2044 17.0148 22.5216 17.0164V17.0164Z" fill="white"/>
</svg>
