<svg width="27" height="30" viewBox="0 0 27 30" fill="none" xmlns="http://www.w3.org/2000/svg">
<path d="M1.73705 22.2589C1.73846 23.3057 2.12886 24.3157 2.83461 25.0987C3.54037 25.8817 4.51272 26.3834 5.56833 26.5093C5.86738 27.201 6.3466 27.8028 6.95757 28.2538C7.56854 28.7048 8.28962 28.9891 9.04795 29.078C9.80627 29.1668 10.575 29.057 11.2764 28.7597C11.9778 28.4624 12.5871 27.9882 13.0427 27.3848C13.4983 27.9882 14.1076 28.4624 14.8091 28.7597C15.5105 29.057 16.2792 29.1668 17.0375 29.078C17.7958 28.9891 18.5169 28.7048 19.1279 28.2538C19.7389 27.8028 20.2181 27.201 20.5171 26.5093C21.5722 26.3834 22.5441 25.8822 23.2497 25.0999C23.9554 24.3177 24.3462 23.3084 24.3484 22.2622C25.1994 21.6351 25.787 20.7223 25.9998 19.6971C26.2126 18.6718 26.0359 17.6053 25.5031 16.6999C25.8851 16.0492 26.0867 15.3111 26.0876 14.5596C26.0904 13.8786 25.9267 13.2069 25.6103 12.6014C25.2939 11.9958 24.8341 11.4741 24.2697 11.0804C24.3219 10.8161 24.3483 10.5476 24.3484 10.2784C24.3482 9.61394 24.191 8.95859 23.8894 8.36413C23.5878 7.76967 23.1499 7.25238 22.6103 6.85309C22.6094 6.16763 22.4416 5.49238 22.121 4.88388C21.8005 4.27539 21.3364 3.75138 20.7678 3.35574C20.5885 2.55576 20.1793 1.82339 19.5891 1.24589C18.9988 0.668396 18.2524 0.270111 17.4386 0.0984896C16.6249 -0.0731314 15.7782 -0.0108534 14.9994 0.277904C14.2207 0.566661 13.5426 1.06972 13.0461 1.72716C12.5499 1.06871 11.8718 0.564678 11.0926 0.275207C10.3134 -0.0142653 9.46611 -0.0769572 8.65173 0.0946104C7.83736 0.266178 7.09031 0.664761 6.49973 1.24281C5.90915 1.82085 5.49996 2.55395 5.32099 3.35464C4.75222 3.75012 4.28807 4.2741 3.96748 4.88263C3.64689 5.49115 3.4792 6.16649 3.47849 6.85199C2.93918 7.25083 2.50136 7.76755 2.19955 8.3614C1.89773 8.95525 1.74017 9.61 1.73928 10.274C1.73921 10.5432 1.76558 10.8118 1.81801 11.076C1.25362 11.4697 0.793799 11.9914 0.477383 12.597C0.160967 13.2026 -0.00274642 13.8742 7.20635e-05 14.5552C0.000998825 15.3067 0.202594 16.0448 0.584647 16.6955C0.0518272 17.601 -0.124931 18.6674 0.087892 19.6927C0.300715 20.7179 0.88832 21.6307 1.73928 22.2578L1.73705 22.2589ZM13.9126 23.6467L14.62 23.2983C14.8618 23.1797 15.1282 23.1178 15.3983 23.1174H16.5217C16.7485 23.1118 16.9641 23.0191 17.1225 22.8592C17.2809 22.6992 17.3696 22.4847 17.3696 22.2614C17.3696 22.038 17.2809 21.8235 17.1225 21.6636C16.9641 21.5036 16.7485 21.411 16.5217 21.4053H15.3983C14.8845 21.4065 14.3772 21.5191 13.9126 21.7351V15.9518C14.7354 15.5972 15.6236 15.4135 16.5217 15.4121C16.7485 15.4064 16.9641 15.3137 17.1225 15.1538C17.2809 14.9939 17.3696 14.7793 17.3696 14.556C17.3696 14.3326 17.2809 14.1181 17.1225 13.9582C16.9641 13.7983 16.7485 13.7056 16.5217 13.6999C15.6346 13.702 14.7537 13.8445 13.9126 14.1221V7.9716C14.4876 8.35693 15.1673 8.5623 15.8629 8.56081H17.3916C17.5076 8.56371 17.6231 8.54371 17.7312 8.50199C17.8393 8.46027 17.9378 8.39767 18.0209 8.31789C18.104 8.23811 18.1701 8.14276 18.2152 8.03746C18.2603 7.93216 18.2835 7.81903 18.2835 7.70475C18.2835 7.59047 18.2603 7.47734 18.2152 7.37204C18.1701 7.26674 18.104 7.17139 18.0209 7.09161C17.9378 7.01183 17.8393 6.94924 17.7312 6.90752C17.6231 6.8658 17.5076 6.84579 17.3916 6.84869H15.8629C15.6347 6.84898 15.4087 6.80483 15.1979 6.71881C14.9871 6.63278 14.7956 6.50656 14.6345 6.34742L13.9143 5.63839V4.28078C13.9132 3.67544 14.1296 3.08921 14.5251 2.62574C14.9207 2.16227 15.47 1.85142 16.0759 1.74814C16.6818 1.64485 17.3053 1.7558 17.8361 2.06135C18.367 2.3669 18.771 2.84739 18.9767 3.41785L17.3972 3.4096H17.391C17.1642 3.41442 16.9482 3.50632 16.7892 3.6657C16.6302 3.82508 16.5407 4.03932 16.5399 4.26272C16.5391 4.48611 16.627 4.70097 16.7849 4.86145C16.9427 5.02193 17.1581 5.11533 17.3849 5.12173L19.9666 5.13931H19.9728C20.0401 5.13881 20.1072 5.13051 20.1726 5.11458C20.6187 5.58681 20.8677 6.20714 20.87 6.85199C20.87 6.88661 20.87 6.92454 20.8655 6.96192L19.8801 8.18816C19.4034 8.78403 19.1404 9.51838 19.1319 10.2768H16.5217C16.4057 10.2739 16.2902 10.2939 16.1821 10.3356C16.074 10.3773 15.9755 10.4399 15.8924 10.5197C15.8093 10.5995 15.7432 10.6948 15.6981 10.8001C15.653 10.9054 15.6298 11.0186 15.6298 11.1328C15.6298 11.2471 15.653 11.3603 15.6981 11.4656C15.7432 11.5709 15.8093 11.6662 15.8924 11.746C15.9755 11.8258 16.074 11.8884 16.1821 11.9301C16.2902 11.9718 16.4057 11.9918 16.5217 11.9889H19.1308V12.8452C19.1279 12.9595 19.1482 13.0732 19.1906 13.1796C19.2329 13.2859 19.2965 13.3829 19.3776 13.4647C19.4586 13.5466 19.5555 13.6116 19.6624 13.656C19.7694 13.7004 19.8843 13.7233 20.0004 13.7233C20.1165 13.7233 20.2314 13.7004 20.3384 13.656C20.4453 13.6116 20.5422 13.5466 20.6232 13.4647C20.7043 13.3829 20.7679 13.2859 20.8103 13.1796C20.8526 13.0732 20.8729 12.9595 20.87 12.8452V10.3114C20.8706 9.92614 21.0025 9.55221 21.2446 9.24951L21.8588 8.48001C22.2078 8.82685 22.4479 9.26524 22.5506 9.74282C22.6533 10.2204 22.6141 10.717 22.4378 11.1732C22.3618 11.3729 22.3642 11.5933 22.4445 11.7913C22.5249 11.9894 22.6774 12.1507 22.8722 12.2439C23.4501 12.5184 23.9049 12.9932 24.1494 13.5773C24.3938 14.1613 24.4108 14.8137 24.1971 15.4093H20.87C20.754 15.4064 20.6385 15.4264 20.5304 15.4681C20.4223 15.5099 20.3238 15.5724 20.2407 15.6522C20.1576 15.732 20.0915 15.8274 20.0464 15.9327C20.0013 16.038 19.9781 16.1511 19.9781 16.2654C19.9781 16.3796 20.0013 16.4928 20.0464 16.5981C20.0915 16.7034 20.1576 16.7987 20.2407 16.8785C20.3238 16.9583 20.4223 17.0209 20.5304 17.0626C20.6385 17.1043 20.754 17.1243 20.87 17.1214H23.7013C23.7228 17.1599 23.7472 17.1966 23.7745 17.2314C24.1477 17.6854 24.3504 18.2522 24.3484 18.8363C24.3475 19.4082 24.1526 19.9634 23.7946 20.4138C23.4804 19.9305 23.0478 19.5328 22.5367 19.2572C22.0256 18.9816 21.4522 18.8368 20.8694 18.8363H19.1308C18.9002 18.8362 18.6791 18.746 18.5161 18.5855C18.353 18.4251 18.2612 18.2075 18.2609 17.9805C18.2639 17.8663 18.2435 17.7526 18.2012 17.6462C18.1588 17.5398 18.0952 17.4428 18.0142 17.361C17.9331 17.2792 17.8363 17.2142 17.7293 17.1698C17.6223 17.1254 17.5074 17.1025 17.3913 17.1025C17.2752 17.1025 17.1603 17.1254 17.0533 17.1698C16.9464 17.2142 16.8495 17.2792 16.7685 17.361C16.6874 17.4428 16.6238 17.5398 16.5815 17.6462C16.5391 17.7526 16.5188 17.8663 16.5217 17.9805C16.5224 18.6615 16.7976 19.3144 17.2867 19.7959C17.7759 20.2774 18.4391 20.5482 19.1308 20.549H20.87C21.3315 20.5493 21.774 20.7299 22.1003 21.0511C22.4266 21.3723 22.61 21.8079 22.6103 22.2622C22.6096 22.8239 22.4219 23.37 22.0759 23.8167C21.73 24.2634 21.2448 24.5862 20.6947 24.7356L20.4194 23.3796C20.3742 23.157 20.241 22.9612 20.0491 22.8353C19.8572 22.7094 19.6224 22.6637 19.3963 22.7082C19.1702 22.7528 18.9713 22.8839 18.8434 23.0728C18.7155 23.2617 18.669 23.4928 18.7143 23.7154L19.0621 25.4276C19.0577 25.4419 19.0504 25.455 19.047 25.4699C18.9038 26.0218 18.578 26.511 18.1211 26.8604C17.6641 27.2098 17.102 27.3996 16.5234 27.3997C16.3672 27.3988 16.2113 27.3843 16.0577 27.3562L17.1387 26.291C17.225 26.2129 17.2943 26.1184 17.3425 26.0133C17.3908 25.9081 17.4169 25.7944 17.4194 25.679C17.4218 25.5637 17.4006 25.449 17.3568 25.3419C17.3131 25.2348 17.2478 25.1376 17.1649 25.056C17.0821 24.9744 16.9832 24.9101 16.8745 24.8671C16.7657 24.824 16.6492 24.8031 16.532 24.8055C16.4148 24.8079 16.2993 24.8336 16.1925 24.8811C16.0857 24.9286 15.9897 24.9969 15.9103 25.0818L14.51 26.4603C14.1255 26.0019 13.9154 25.4258 13.916 24.8312L13.9126 23.6467ZM4.34614 15.4121H1.88612C1.67226 14.8164 1.6892 14.164 1.93368 13.5799C2.17817 12.9958 2.63301 12.5211 3.21105 12.2467C3.40586 12.1535 3.55836 11.9921 3.63869 11.7941C3.71903 11.5961 3.72143 11.3757 3.64543 11.176C3.47797 10.7433 3.43424 10.2737 3.51899 9.81819C3.60375 9.36273 3.81375 8.93886 4.12615 8.59269L5.86034 11.4607C5.88113 11.4947 5.90407 11.5274 5.92901 11.5585C6.09206 11.7591 6.27726 11.9413 6.4812 12.1016L5.4695 13.0948C5.32113 13.2579 5.24187 13.4708 5.248 13.6896C5.25412 13.9085 5.34518 14.1167 5.50245 14.2716C5.65972 14.4264 5.87126 14.516 6.09358 14.522C6.31591 14.5281 6.53214 14.45 6.69784 14.304L8.21092 12.8145C8.35371 12.8322 8.49747 12.8414 8.64139 12.8419H9.56153C9.78835 12.8363 10.0039 12.7436 10.1623 12.5837C10.3207 12.4238 10.4094 12.2092 10.4094 11.9859C10.4094 11.7625 10.3207 11.548 10.1623 11.3881C10.0039 11.2282 9.78835 11.1355 9.56153 11.1298H8.64363C8.39182 11.1304 8.14291 11.0769 7.91427 10.9731C7.68563 10.8692 7.48276 10.7175 7.31982 10.5285L5.22775 7.0625C5.22105 6.985 5.21546 6.913 5.21546 6.84924C5.21754 6.43134 5.32312 6.02025 5.52306 5.65161C5.723 5.28296 6.01125 4.96788 6.36284 4.73368L7.87034 5.47624C7.97247 5.52652 8.08367 5.55649 8.19757 5.56446C8.31148 5.57243 8.42586 5.55824 8.53419 5.52269C8.64253 5.48714 8.74269 5.43093 8.82895 5.35728C8.91522 5.28363 8.98591 5.19397 9.03697 5.09342C9.08804 4.99287 9.11849 4.88341 9.12659 4.77128C9.13468 4.65915 9.12026 4.54655 9.08415 4.4399C9.04804 4.33325 8.99095 4.23466 8.91613 4.14973C8.84131 4.06481 8.75023 3.99522 8.64809 3.94495L7.18917 3.22657C7.43414 2.69124 7.85818 2.25479 8.39054 1.99004C8.9229 1.72529 9.53139 1.64825 10.1145 1.77179C10.6976 1.89532 11.22 2.21195 11.5946 2.66885C11.9692 3.12575 12.1733 3.69528 12.1729 4.28243V7.43955C11.5979 7.05422 10.9181 6.84885 10.2226 6.85034H9.56376C9.33694 6.856 9.12135 6.94867 8.96295 7.1086C8.80456 7.26852 8.71591 7.48304 8.71591 7.7064C8.71591 7.92976 8.80456 8.14428 8.96295 8.3042C9.12135 8.46413 9.33694 8.5568 9.56376 8.56246H10.2226C10.4508 8.56218 10.6768 8.60632 10.8876 8.69235C11.0984 8.77837 11.2899 8.90459 11.4509 9.06373L12.1712 9.77277V14.8514C11.4345 15.0701 10.641 15.005 9.95124 14.6695C9.74588 14.5752 9.51124 14.5635 9.29727 14.6369C9.08329 14.7104 8.90686 14.8631 8.80552 15.0626C8.70418 15.2621 8.68593 15.4927 8.75465 15.7053C8.82337 15.9178 8.97364 16.0956 9.17349 16.2008C9.83434 16.526 10.563 16.6954 11.3019 16.6955C11.5939 16.6929 11.885 16.6642 12.1717 16.6097V19.6943H10.3069C9.98336 19.6949 9.66612 19.6063 9.39117 19.4384C9.11622 19.2705 8.89458 19.0301 8.75139 18.7445L8.16793 17.5958C8.06479 17.3927 7.88394 17.2383 7.66515 17.1665C7.44636 17.0947 7.20757 17.1114 7.00129 17.2129C6.79502 17.3145 6.63816 17.4925 6.56523 17.7079C6.4923 17.9233 6.50927 18.1583 6.61241 18.3614L7.19531 19.514C7.4826 20.0842 7.92634 20.5638 8.47628 20.8984C9.02622 21.2331 9.66038 21.4094 10.3069 21.4075H12.1734V24.8318C12.1724 25.3623 12.0048 25.8795 11.6934 26.3125C11.382 26.7454 10.9422 27.073 10.4342 27.2502V25.8937C10.4355 25.4436 10.346 24.9977 10.171 24.5819C9.99603 24.1662 9.73895 23.7887 9.41469 23.4714L8.43928 22.5117C8.36038 22.425 8.26435 22.355 8.15704 22.306C8.04974 22.2571 7.93342 22.2302 7.8152 22.227C7.69697 22.2238 7.57933 22.2443 7.46945 22.2874C7.35957 22.3305 7.25976 22.3951 7.17613 22.4775C7.0925 22.5598 7.02681 22.658 6.98306 22.7662C6.9393 22.8744 6.91842 22.9902 6.92168 23.1066C6.92494 23.223 6.95227 23.3375 7.00201 23.4431C7.05174 23.5487 7.12284 23.6433 7.21095 23.7209L8.18468 24.6806C8.34644 24.8391 8.47475 25.0276 8.56224 25.2351C8.64973 25.4426 8.69465 25.6651 8.69444 25.8898V27.2463C8.29134 27.1057 7.92959 26.8696 7.64108 26.5588C7.35257 26.2481 7.14618 25.8722 7.0401 25.4644C6.99225 25.2803 6.88353 25.1172 6.73109 25.0006C6.57864 24.8841 6.39114 24.8208 6.19813 24.8208H6.1663L6.08535 24.8252C5.39456 24.8244 4.7322 24.5544 4.24322 24.074C3.75424 23.5937 3.47847 22.9422 3.47625 22.2622C3.47625 22.238 3.47625 22.2111 3.4796 22.1852L4.96142 20.7232C5.04771 20.6451 5.11706 20.5506 5.1653 20.4454C5.21354 20.3403 5.23967 20.2266 5.24212 20.1112C5.24458 19.9958 5.2233 19.8811 5.17958 19.7741C5.13585 19.667 5.07059 19.5697 4.98769 19.4881C4.9048 19.4065 4.806 19.3423 4.69724 19.2992C4.58847 19.2562 4.47199 19.2353 4.35479 19.2377C4.23759 19.2401 4.1221 19.2658 4.01526 19.3133C3.90842 19.3608 3.81244 19.4291 3.73309 19.514L2.54384 20.6847C2.29013 20.4458 2.08805 20.1588 1.9497 19.8411C1.81135 19.5234 1.73959 19.1814 1.73872 18.8357C1.73677 18.2517 1.93949 17.6848 2.31269 17.2308C2.33982 17.196 2.36427 17.1593 2.38583 17.1209H4.34725C4.46331 17.1238 4.57877 17.1038 4.68685 17.0621C4.79493 17.0203 4.89343 16.9577 4.97655 16.878C5.05967 16.7982 5.12573 16.7028 5.17083 16.5975C5.21594 16.4922 5.23917 16.3791 5.23917 16.2648C5.23917 16.1505 5.21594 16.0374 5.17083 15.9321C5.12573 15.8268 5.05967 15.7315 4.97655 15.6517C4.89343 15.5719 4.79493 15.5093 4.68685 15.4676C4.57877 15.4259 4.46331 15.4059 4.34725 15.4088L4.34614 15.4121Z" fill="white"/>
</svg>
