<svg width="46" height="42" viewBox="0 0 46 42" fill="none" xmlns="http://www.w3.org/2000/svg">
<path d="M42.2322 0.851521L1.77317 17.4264C1.77317 17.4264 -0.139835 18.1155 0.00816512 19.3736C0.156165 20.6317 1.72117 21.2165 1.72117 21.2165L11.9002 24.7939C11.9002 24.7939 14.9732 35.3175 15.5782 37.3198C16.1832 39.3221 16.6682 39.3635 16.6682 39.3635C16.8454 39.4319 17.0376 39.4539 17.226 39.4274C17.4144 39.4008 17.5926 39.3265 17.7432 39.2119L24.3202 32.9509L34.5712 41.1591C34.9045 41.3467 35.2754 41.4603 35.658 41.4919C36.0406 41.5235 36.4255 41.4723 36.7859 41.3419C37.1463 41.2115 37.4733 41.0051 37.744 40.7372C38.0148 40.4692 38.2227 40.1462 38.3532 39.7907L45.5532 1.85072C45.5572 -0.676318 42.2322 0.851521 42.2322 0.851521ZM35.0692 36.74L24.1002 27.9608L20.7002 31.1996L21.4482 24.3086L36.0652 10.6702L16.1392 22.3121L7.30017 19.2102L41.0232 5.3927L35.0692 36.74Z" fill="white"/>
</svg>
