<svg width="57" height="53" viewBox="0 0 57 53" fill="none" xmlns="http://www.w3.org/2000/svg">
<path d="M50.59 0.470459H5.427C3.98986 0.477446 2.6136 1.04256 1.59737 2.04297C0.581147 3.04338 0.00709713 4.39823 0 5.813V38.2099C0.00709713 39.6246 0.581147 40.9795 1.59737 41.9799C2.6136 42.9803 3.98986 43.5454 5.427 43.5524H19.256V48.7227H14C13.7652 48.7149 13.5312 48.7536 13.312 48.8367C13.0927 48.9198 12.8927 49.0454 12.7238 49.2061C12.5549 49.3669 12.4206 49.5594 12.3288 49.7724C12.2371 49.9853 12.1898 50.2142 12.1898 50.4454C12.1898 50.6767 12.2371 50.9056 12.3288 51.1185C12.4206 51.3314 12.5549 51.524 12.7238 51.6847C12.8927 51.8455 13.0927 51.9711 13.312 52.0542C13.5312 52.1372 13.7652 52.176 14 52.1682H42.012C42.2468 52.176 42.4808 52.1372 42.7 52.0542C42.9193 51.9711 43.1193 51.8455 43.2882 51.6847C43.4571 51.524 43.5914 51.3314 43.6831 51.1185C43.7749 50.9056 43.8221 50.6767 43.8221 50.4454C43.8221 50.2142 43.7749 49.9853 43.6831 49.7724C43.5914 49.5594 43.4571 49.3669 43.2882 49.2061C43.1193 49.0454 42.9193 48.9198 42.7 48.8367C42.4808 48.7536 42.2468 48.7149 42.012 48.7227H36.761V43.5524H50.59C52.0271 43.5454 53.4034 42.9803 54.4196 41.9799C55.4358 40.9795 56.0099 39.6246 56.017 38.2099V5.813C56.0099 4.39823 55.4358 3.04338 54.4196 2.04297C53.4034 1.04256 52.0271 0.477446 50.59 0.470459ZM3.5 5.813C3.50418 5.31116 3.70854 4.83103 4.06902 4.47616C4.4295 4.12129 4.91722 3.92011 5.427 3.91599H50.59C51.0994 3.92036 51.5867 4.12152 51.947 4.47615C52.3072 4.83078 52.5115 5.31051 52.516 5.81202V31.4891H3.5V5.813ZM33.26 48.7217H22.76V43.5524H33.26V48.7217ZM52.515 38.2099C52.5105 38.7114 52.3062 39.1911 51.946 39.5457C51.5857 39.9004 51.0984 40.1015 50.589 40.1059H5.427C4.91739 40.1018 4.42982 39.9007 4.06937 39.5461C3.70892 39.1914 3.50444 38.7115 3.5 38.2099V34.9356H52.515V38.2099Z" fill="white"/>
<path d="M37.6359 11.3269C37.3108 11.0069 36.87 10.8271 36.4104 10.8271C35.9507 10.8271 35.5099 11.0069 35.1849 11.3269C34.8598 11.6468 34.6772 12.0808 34.6772 12.5333C34.6772 12.9858 34.8598 13.4197 35.1849 13.7397L39.2108 17.701L35.1849 21.6644C34.8598 21.9843 34.6772 22.4183 34.6772 22.8708C34.6772 23.3233 34.8598 23.7572 35.1849 24.0772C35.5099 24.3972 35.9507 24.5769 36.4104 24.5769C36.87 24.5769 37.3108 24.3972 37.6359 24.0772L42.8878 18.907C43.0538 18.7514 43.186 18.5642 43.2763 18.3569C43.3666 18.1495 43.4132 17.9262 43.4132 17.7005C43.4132 17.4749 43.3666 17.2516 43.2763 17.0442C43.186 16.8369 43.0538 16.6497 42.8878 16.4941L37.6359 11.3269Z" fill="white"/>
<path d="M20.8309 11.327C20.6729 11.1636 20.4828 11.0335 20.2721 10.9446C20.0614 10.8557 19.8346 10.8098 19.6054 10.8098C19.3762 10.8098 19.1494 10.8557 18.9387 10.9446C18.7281 11.0335 18.5379 11.1636 18.3799 11.327L13.1289 16.4973C12.9629 16.6528 12.8307 16.84 12.7404 17.0474C12.6501 17.2548 12.6035 17.478 12.6035 17.7037C12.6035 17.9293 12.6501 18.1526 12.7404 18.36C12.8307 18.5674 12.9629 18.7545 13.1289 18.9101L18.3809 24.0804C18.7059 24.4003 19.1468 24.5801 19.6064 24.5801C20.0661 24.5801 20.5069 24.4003 20.8319 24.0804C21.1569 23.7604 21.3395 23.3264 21.3395 22.8739C21.3395 22.4214 21.1569 21.9875 20.8319 21.6675L16.8039 17.7012L20.8299 13.7379C20.9957 13.5824 21.1277 13.3954 21.2179 13.1883C21.3081 12.9811 21.3546 12.7581 21.3547 12.5327C21.3548 12.3073 21.3085 12.0842 21.2184 11.877C21.1284 11.6697 20.9965 11.4826 20.8309 11.327Z" fill="white"/>
<path d="M32.2101 7.36333C31.768 7.21612 31.2854 7.2416 30.8619 7.43449C30.4384 7.62738 30.1063 7.97297 29.9341 8.39993L24.1571 24.0819C23.9946 24.5161 24.014 24.996 24.211 25.4161C24.408 25.8362 24.7665 26.162 25.2076 26.3219C25.6486 26.4818 26.1361 26.4627 26.5629 26.2688C26.9896 26.0749 27.3206 25.722 27.4831 25.2878L33.2601 9.60389C33.4098 9.16909 33.3843 8.69433 33.189 8.27747C32.9936 7.8606 32.6432 7.5334 32.2101 7.36333Z" fill="white"/>
</svg>
