<svg width="24" height="22" viewBox="0 0 24 22" fill="none" xmlns="http://www.w3.org/2000/svg">
<path d="M21.9682 0.238096L0.922358 8.85994C0.922358 8.85994 -0.0727388 9.2184 0.00424729 9.87283C0.0812334 10.5273 0.895309 10.8314 0.895309 10.8314L6.19018 12.6923C6.19018 12.6923 7.78868 18.1664 8.10339 19.208C8.41809 20.2496 8.67038 20.2711 8.67038 20.2711C8.76255 20.3067 8.86253 20.3181 8.96055 20.3043C9.05856 20.2905 9.15126 20.2519 9.22957 20.1922L12.6508 16.9354L17.9831 21.2051C18.1564 21.3027 18.3494 21.3618 18.5484 21.3782C18.7474 21.3947 18.9477 21.368 19.1351 21.3002C19.3226 21.2324 19.4927 21.125 19.6335 20.9856C19.7744 20.8462 19.8825 20.6782 19.9504 20.4933L23.6957 0.757854C23.6977 -0.556648 21.9682 0.238096 21.9682 0.238096ZM18.2421 18.9064L12.5363 14.3397L10.7677 16.0244L11.1568 12.4399L18.7602 5.34555L8.39521 11.4014L3.79737 9.78783L21.3393 2.60031L18.2421 18.9064Z" fill="#616161"/>
</svg>
